<?xml version="1.0" encoding="UTF-8"?>
<svg width="161px" height="54px" viewBox="0 0 161 54" version="1.1" xmlns="http://www.w3.org/2000/svg" xmlns:xlink="http://www.w3.org/1999/xlink">
    <!-- Generator: Sketch 42 (36781) - http://www.bohemiancoding.com/sketch -->
    <title>Group</title>
    <desc>Created with Sketch.</desc>
    <defs></defs>
    <g id="Page-1" stroke="none" stroke-width="1" fill="none" fill-rule="evenodd">
        <g id="Group" transform="translate(-5.000000, -54.000000)">
            <path d="M11.5091797,98.8143909 C11.5091797,98.8143909 10.0552503,92.8967483 14.7805209,86.9791042 C19.5057914,81.0614601 79.1168971,55.0238299 84.5691323,55.0238299 C90.0213676,55.0238299 96.9275323,50.8814796 99.8353911,49.6979509 C102.74325,48.5144222 150.359438,22.4767913 154.721226,27.210906 C159.083014,31.9450207 155.084709,54.4320649 155.084709,55.6155943 C155.084709,56.7991237 149.995956,65.0838229 144.54372,65.0838237 C139.091485,65.0838244 118.372991,81.0614601 111.830309,84.0202825 C105.287626,86.9791049 77.6629677,106.507327 60.5792972,106.507327 C43.4956266,106.507328 43.8591091,106.507328 29.6832973,110.057914 C15.5074854,113.6085 11.5091797,98.8143909 11.5091797,98.8143909 Z" id="Path-5" fill="#CCCCCC" transform="translate(84.028459, 68.622213) rotate(24.000000) translate(-84.028459, -68.622213) "></path>
            <path d="M153.934482,95.7524 C153.491543,95.5323099 151.193082,94.2701104 151.045556,94.8568974 C150.89791,95.6638945 151.196742,97.5344481 151.196742,98.3414451 C142.485618,98.7816253 133.988531,100.511888 125.498876,97.6507166 C119.223914,95.523179 119.698352,91.0112005 119.550706,85.3622212 C119.485294,83.2170789 121.783611,80.7590336 121.635965,79.2917663 C121.562142,78.631496 119.448729,78.1568856 119.374906,78.8905193 C118.512222,80.2195696 116.47879,83.2775503 116.552613,86.5054186 C116.774083,91.3475208 117.143198,96.1893832 121.49876,99.0505545 C125.55903,101.691636 130.659145,102.194508 135.309999,102.194508 C140.403792,102.194508 145.896151,101.262291 150.916121,100.968837 C150.916121,101.702471 151.164487,103.356323 151.164487,104.089957 C151.164487,104.970317 152.304575,104.548413 152.861299,103.96689 C153.781285,103.989025 154.809961,102.934061 155.548192,102.713971 C156.729361,102.347034 157.358173,102.154757 158.539342,101.641094 C159.20375,101.348 159.673086,99.897787 158.934856,99.5308503 C156.793986,98.4303998 156.075351,96.8528505 153.934482,95.7524 Z" id="Shape" fill="#111111" transform="translate(137.930269, 91.557538) scale(-1, 1) rotate(15.000000) translate(-137.930269, -91.557538) "></path>
            <path d="M20.0085,78.517 L20.0085,78.544 C20.6295,79.705 21.9795,81.703 23.1135,82.216 C23.5995,82.513 24.1665,82.648 24.8415,82.648 C26.1645,82.648 27.6495,82.027 28.4325,81.433 L28.5135,81.352 L28.5405,81.271 C28.5675,81.217 28.7025,81.028 28.8105,80.866 C29.3505,80.11 29.7555,79.462 29.5125,79.003 C29.4045,78.76 29.1615,78.652 28.8105,78.652 C28.3515,78.652 28.0545,79.192 27.6225,80.029 C27.5415,80.191 27.4605,80.353 27.3795,80.488 C27.2445,80.515 27.0825,80.569 26.8935,80.65 C26.3535,80.812 25.6785,81.055 24.9765,81.055 C24.7065,81.055 24.4365,81.001 24.2205,80.947 C23.4645,80.677 22.0335,79.138 21.5205,78.301 C20.7105,76.195 20.4135,73.306 20.7645,70.552 C21.1155,67.744 22.0875,65.422 23.4105,64.261 L23.4645,64.207 C23.9235,63.478 24.7335,63.046 25.6245,63.046 C26.2455,63.046 26.8665,63.235 27.4065,63.613 L27.4335,63.613 C27.6225,63.721 27.7845,63.883 27.9195,64.045 C28.1895,64.315 28.4865,64.639 29.0535,64.639 C29.2155,64.639 29.3775,64.612 29.5395,64.558 L29.8095,64.504 L29.7555,64.234 C29.5935,63.505 28.9455,62.83 27.9465,62.317 C27.0285,61.831 25.8675,61.561 24.7875,61.561 C24.3555,61.561 23.9235,61.588 23.5455,61.669 L23.4915,61.696 L23.4645,61.696 C21.5205,62.857 20.0355,65.557 19.3875,69.148 C19.0905,70.768 18.9825,72.469 19.0635,74.062 C19.1715,75.736 19.4955,77.275 20.0085,78.517 Z M33.7515,71.713 C34.4535,71.605 35.1555,71.443 35.8305,71.308 C37.3965,70.984 38.9895,70.633 40.7175,70.633 C41.0415,70.633 41.3655,70.66 41.6625,70.687 C41.5005,73.684 41.6355,77.383 42.0945,81.109 L42.1215,81.325 L42.3645,81.325 C42.4995,81.325 42.5805,81.352 42.6615,81.352 C42.7155,81.352 42.7965,81.379 42.8505,81.379 C42.9585,81.379 43.0395,81.352 43.1745,81.325 L43.3635,81.298 L43.3905,81.109 C43.5795,79.975 43.4445,78.355 43.3095,76.654 C43.2285,75.52 43.1475,74.359 43.1475,73.333 C43.1475,71.956 43.2555,70.552 43.3365,69.067 C43.4445,67.555 43.5525,66.016 43.5525,64.423 L43.5525,64.045 C43.5795,63.262 43.6065,62.398 43.2015,61.993 C43.0665,61.858 42.8505,61.777 42.6345,61.804 L42.5805,61.804 C42.2835,61.912 42.2295,61.993 42.1485,62.209 C42.1215,62.209 42.1215,62.236 42.1215,62.263 L42.0945,62.29 C41.8515,63.046 41.8515,64.288 41.8785,65.611 C41.9055,66.853 41.9055,68.149 41.6895,68.986 C39.2595,68.986 37.0725,69.472 34.9395,69.931 C34.5345,70.012 34.1295,70.093 33.7515,70.174 C33.6975,69.04 33.7245,67.96 33.7515,66.934 C33.8055,65.449 33.8325,64.072 33.6705,62.722 L33.6435,62.56 L33.5355,62.506 C33.1845,62.344 32.8335,62.29 32.5905,62.263 L32.4555,62.263 L32.3745,62.344 C32.0505,62.668 32.0775,63.154 32.1315,63.586 L32.1315,64.126 C31.7805,71.011 31.9965,76.978 32.7525,81.892 L32.7525,81.919 L32.7795,81.946 C32.8065,82.081 32.9685,82.297 33.4545,82.297 C33.6435,82.297 33.9405,82.243 34.1025,82.135 L34.2105,82.054 L34.2105,81.919 C34.2105,80.326 34.1025,78.679 33.9945,77.086 C33.8595,75.304 33.7245,73.468 33.7515,71.713 Z M48.6285,73.576 C48.3315,74.494 48.0345,75.547 47.7375,76.681 C47.3865,77.95 47.0355,79.246 46.6305,80.434 C46.6035,80.488 46.5765,80.569 46.5495,80.677 C46.3875,81.217 46.1445,82.027 45.4425,82.027 C45.2805,82.027 45.0645,81.973 44.8755,81.838 L44.7405,81.757 L44.7405,81.622 C44.7135,81.028 44.9565,80.515 45.1725,80.029 C45.2805,79.759 45.3885,79.489 45.4695,79.219 C45.9825,77.41 46.4685,75.547 46.9005,73.738 C47.6835,70.714 48.4665,67.582 49.5465,64.531 C49.7085,64.045 50.1405,62.83 50.5185,62.263 L50.5455,62.209 L50.5725,62.182 C50.7615,62.047 50.9505,61.993 51.1125,61.993 C51.9765,61.993 52.3005,63.397 52.5165,64.342 L52.5165,64.396 C52.8405,65.8 53.0835,67.447 53.2995,69.04 C53.4345,70.093 53.5695,71.092 53.7045,71.902 C53.7315,71.956 53.7855,71.983 53.8935,72.064 C54.0015,72.118 54.1635,72.226 54.2715,72.388 L54.2985,72.442 L54.2985,72.496 C54.3255,72.847 54.1365,73.009 54.0285,73.09 C54.0015,73.117 53.9745,73.144 53.9475,73.144 C53.9475,73.144 53.9475,73.171 53.9745,73.198 C54.4605,75.196 55.0815,77.41 55.8645,79.786 C55.8915,79.894 55.9455,80.002 55.9725,80.137 C56.1885,80.704 56.4315,81.352 56.2695,82 L56.2425,82.108 L56.1345,82.189 C55.9725,82.243 55.8105,82.297 55.6485,82.297 C55.4865,82.297 55.3515,82.27 55.2165,82.243 C55.1355,82.216 55.0275,82.216 54.9465,82.216 L54.7845,82.189 L54.7305,82.027 C53.7045,78.868 52.8945,76.006 52.2195,73.333 C51.9495,73.306 51.6525,73.306 51.3555,73.306 C50.4645,73.306 49.4925,73.414 48.6285,73.576 Z M49.0335,71.983 C49.2765,71.983 49.5195,71.956 49.7625,71.929 C50.4375,71.902 51.1395,71.848 51.8685,71.848 C51.6255,69.742 51.3555,67.582 50.9235,65.611 C50.4375,66.988 50.0325,68.473 49.6275,69.904 C49.4385,70.579 49.2495,71.281 49.0335,71.983 Z M68.2305,62.047 L68.2305,62.209 C68.2305,64.261 68.3925,66.745 68.5275,69.391 C68.6895,71.875 69.0405,75.547 69.0675,77.707 C67.1235,72.496 64.8015,68.797 62.2635,64.288 C61.7505,63.559 60.8865,62.371 59.7255,62.371 C59.5905,62.371 59.4555,62.398 59.2935,62.425 L59.1045,62.479 L59.1045,62.695 C59.0775,63.586 59.0235,64.477 58.9965,65.422 C58.9155,67.933 58.7805,70.498 58.6185,73.09 C58.4295,76.303 58.2945,79.246 58.2135,81.865 L58.2135,82.054 L58.3755,82.135 C58.5105,82.189 58.6725,82.216 58.8345,82.216 C59.1585,82.216 59.4825,82.135 59.6985,82.054 L59.8875,82 L59.8875,81.811 C59.8875,81.595 59.9955,80.812 60.0225,79.759 C60.1575,75.898 60.6165,67.987 60.8055,65.152 C62.2095,67.258 63.7485,70.201 65.4225,73.252 C66.1515,74.521 66.7725,76.114 67.3665,77.68 C67.7985,78.76 68.2035,79.786 68.6355,80.704 L68.6355,80.758 C68.9055,81.325 69.2835,82.216 70.0665,82.216 C70.2825,82.216 70.4985,82.135 70.7415,82 L70.9035,81.919 L70.8765,81.73 C70.5255,78.571 70.4715,74.791 70.2825,71.173 C70.1205,68.122 70.0395,64.99 69.8505,62.317 L69.8235,62.209 L69.7695,62.155 C69.5265,61.912 69.2565,61.804 68.9595,61.804 C68.7705,61.804 68.5545,61.858 68.3655,61.966 L68.2305,62.047 Z M82.3785,72.091 C82.2165,72.091 82.0275,72.064 81.8385,72.064 C81.6225,72.037 81.4065,72.01 81.1635,72.01 C80.8665,72.01 79.9755,72.01 79.8405,72.874 L79.8405,73.036 L79.9485,73.144 C80.4345,73.495 81.0555,73.684 81.9195,73.684 C82.5135,73.684 83.1885,73.603 83.8095,73.495 C84.2415,73.441 84.6465,73.414 85.0245,73.36 C85.1595,74.089 85.1595,74.926 85.0515,75.979 C84.8085,77.923 84.2145,80.326 83.3505,80.731 L83.3235,80.731 C83.1075,80.866 82.7565,80.92 82.3515,80.92 C80.9745,80.92 79.0575,80.245 78.3825,79.867 L78.3825,79.84 C78.1665,79.759 78.0045,79.543 77.7885,79.327 C77.6265,79.165 77.4645,78.976 77.2755,78.814 C77.0595,78.652 76.8165,78.49 76.5735,78.355 C76.3575,78.22 76.1415,78.085 75.9795,77.95 C74.7105,76.735 74.1165,74.791 74.3595,72.469 C74.5485,70.39 75.4125,68.257 76.5735,66.907 C77.8965,65.395 79.6785,63.667 81.8655,63.667 L82.1895,63.667 C82.3515,63.694 82.4865,63.748 82.6485,63.829 C82.8645,63.937 83.1075,64.045 83.4585,64.045 C83.6205,64.045 83.7555,64.045 83.9445,63.991 L84.2145,63.91 L84.1065,63.613 C83.5935,62.317 82.4595,62.155 81.6495,62.155 C81.3525,62.155 81.0285,62.182 80.6505,62.236 C79.3815,62.398 77.8155,63.262 76.8435,64.099 C75.9525,64.828 74.7375,66.097 74.1975,67.096 C73.2525,68.662 72.6315,70.795 72.5235,72.793 C72.4155,74.521 72.6585,76.924 74.3055,78.571 C74.5755,78.841 74.9265,79.057 75.2775,79.273 C75.4125,79.381 75.5745,79.462 75.7365,79.57 C75.8985,79.705 76.0605,79.894 76.2495,80.056 C76.4655,80.299 76.6815,80.542 76.9515,80.731 C78.2745,81.568 80.6235,82.243 82.6215,82.324 L82.8645,82.324 C84.6735,82.324 85.4565,81.217 85.9695,80.137 L85.9695,80.11 C86.4015,79.165 86.7255,77.815 86.8605,76.384 C86.9955,74.953 86.9415,73.495 86.7255,72.307 L86.6985,72.199 L86.6175,72.118 C86.2665,71.902 85.8345,71.821 85.2405,71.821 C84.7005,71.821 84.1335,71.875 83.5935,71.956 C83.1885,72.01 82.7565,72.064 82.3785,72.091 Z M97.2285,61.642 L97.2015,61.642 C96.5265,61.669 95.7975,61.696 95.0145,61.696 C92.9625,61.723 90.8295,61.75 89.4795,62.317 L89.2905,62.371 L89.2905,62.587 C89.4525,65.611 89.3175,68.986 89.1825,72.523 C89.0745,75.736 88.9395,79.057 89.0475,82.108 L89.0745,82.297 L89.2365,82.351 C89.9385,82.567 90.7755,82.648 91.8015,82.648 C92.7195,82.648 93.6645,82.567 94.5825,82.513 C95.4735,82.432 96.2835,82.378 97.0665,82.378 C97.3095,82.378 97.5795,82.405 97.8495,82.459 C98.1465,82.513 98.4705,82.567 98.7675,82.567 C99.3885,82.567 99.7935,82.324 99.9825,81.784 L100.0905,81.595 L99.9015,81.46 C99.3345,81.109 98.4975,80.92 97.2285,80.92 C96.4185,80.92 95.5545,81.001 94.7175,81.082 C93.8535,81.136 92.9625,81.217 92.0985,81.217 C91.5585,81.217 91.0995,81.19 90.6405,81.136 C90.6675,79.03 90.8025,77.275 90.9645,75.25 C91.0185,74.575 91.0725,73.846 91.1265,73.09 C91.6395,73.117 92.1525,73.117 92.6655,73.117 C94.1235,73.117 95.5545,73.063 96.8505,72.928 C97.0395,72.901 97.2285,72.901 97.4175,72.901 C98.0925,72.847 98.8215,72.82 99.2805,72.361 L99.4425,72.199 L99.3345,72.037 C99.0375,71.578 98.6055,71.335 97.9575,71.335 C97.6065,71.335 97.2285,71.416 96.8505,71.47 C96.5805,71.497 96.3105,71.551 96.0675,71.578 C95.4735,71.605 94.8255,71.632 94.1235,71.632 C93.2055,71.632 92.1795,71.605 91.0725,71.497 C91.1535,68.689 91.1535,66.016 91.1535,63.586 C92.5305,63.289 94.4205,63.235 96.1215,63.208 C96.6075,63.181 97.0395,63.181 97.4715,63.154 L97.7955,63.154 C97.9305,63.154 98.0655,63.181 98.2005,63.181 C98.7675,63.181 99.3615,63.1 99.7125,62.641 L99.7665,62.587 L99.7665,62.506 C99.7935,62.236 99.7395,62.047 99.5775,61.885 C99.3075,61.588 98.8485,61.561 98.5515,61.561 C98.2815,61.561 98.0115,61.588 97.7685,61.615 C97.5525,61.615 97.3635,61.642 97.2285,61.642 Z M123.0135,63.856 C122.7705,62.533 122.3925,61.939 121.9335,61.885 C121.8525,61.858 121.7985,61.858 121.7445,61.858 C121.4745,61.858 121.3125,61.966 121.1505,62.128 L121.0965,62.182 L121.0965,62.209 C120.1785,64.18 119.5035,66.313 118.7745,68.392 C118.3425,69.553 117.9105,71.119 117.4515,72.28 C117.2625,71.794 116.9115,70.768 116.6685,70.039 C115.9935,68.149 115.1025,65.773 114.5895,64.774 C114.2115,63.883 113.7525,62.263 112.5915,62.263 C112.4025,62.263 112.2405,62.317 112.0785,62.371 L111.9435,62.425 C111.1335,67.636 110.9715,72.361 110.3235,77.032 C110.1075,78.625 109.7565,80.083 109.8645,81.622 L109.8645,81.811 L110.0265,81.865 C110.2425,81.946 110.4045,81.973 110.5665,81.973 C110.8905,81.973 111.2145,81.838 111.4305,81.217 C111.5655,80.839 111.5925,80.38 111.6195,79.975 C111.7815,77.788 112.1865,75.358 112.4025,73.171 C112.6725,70.579 112.9155,67.933 113.2665,65.638 C114.0495,67.474 114.8325,69.715 115.5075,71.74 C115.6155,72.01 115.7235,72.307 115.8045,72.604 C115.8585,72.739 115.9395,72.901 115.9935,73.09 C116.2365,73.846 116.5875,74.899 117.4245,74.899 C117.4785,74.899 117.5055,74.899 117.5595,74.872 C118.0455,74.791 118.4235,74.116 118.8285,73.117 C118.8555,73.036 118.8825,72.982 118.9095,72.955 L118.9095,72.928 C119.2335,72.118 119.5305,71.119 119.8545,70.066 C120.3405,68.581 121.0155,66.745 121.6095,65.395 C122.0415,67.744 122.2305,70.336 122.5545,72.631 C122.9865,75.763 123.2835,79.003 123.9315,82.081 L123.9585,82.243 L124.1475,82.27 C124.3095,82.324 124.4715,82.324 124.6065,82.324 C125.1195,82.324 125.3625,82.108 125.4975,81.919 L125.5515,81.838 L125.5515,81.73 C124.3365,76.168 124.0395,69.256 123.0135,63.856 Z M136.3245,61.642 L136.2975,61.642 C135.6225,61.669 134.8935,61.696 134.1105,61.696 C132.0585,61.723 129.9255,61.75 128.5755,62.317 L128.3865,62.371 L128.3865,62.587 C128.5485,65.611 128.4135,68.986 128.2785,72.523 C128.1705,75.736 128.0355,79.057 128.1435,82.108 L128.1705,82.297 L128.3325,82.351 C129.0345,82.567 129.8715,82.648 130.8975,82.648 C131.8155,82.648 132.7605,82.567 133.6785,82.513 C134.5695,82.432 135.3795,82.378 136.1625,82.378 C136.4055,82.378 136.6755,82.405 136.9455,82.459 C137.2425,82.513 137.5665,82.567 137.8635,82.567 C138.4845,82.567 138.8895,82.324 139.0785,81.784 L139.1865,81.595 L138.9975,81.46 C138.4305,81.109 137.5935,80.92 136.3245,80.92 C135.5145,80.92 134.6505,81.001 133.8135,81.082 C132.9495,81.136 132.0585,81.217 131.1945,81.217 C130.6545,81.217 130.1955,81.19 129.7365,81.136 C129.7635,79.03 129.8985,77.275 130.0605,75.25 C130.1145,74.575 130.1685,73.846 130.2225,73.09 C130.7355,73.117 131.2485,73.117 131.7615,73.117 C133.2195,73.117 134.6505,73.063 135.9465,72.928 C136.1355,72.901 136.3245,72.901 136.5135,72.901 C137.1885,72.847 137.9175,72.82 138.3765,72.361 L138.5385,72.199 L138.4305,72.037 C138.1335,71.578 137.7015,71.335 137.0535,71.335 C136.7025,71.335 136.3245,71.416 135.9465,71.47 C135.6765,71.497 135.4065,71.551 135.1635,71.578 C134.5695,71.605 133.9215,71.632 133.2195,71.632 C132.3015,71.632 131.2755,71.605 130.1685,71.497 C130.2495,68.689 130.2495,66.016 130.2495,63.586 C131.6265,63.289 133.5165,63.235 135.2175,63.208 C135.7035,63.181 136.1355,63.181 136.5675,63.154 L136.8915,63.154 C137.0265,63.154 137.1615,63.181 137.2965,63.181 C137.8635,63.181 138.4575,63.1 138.8085,62.641 L138.8625,62.587 L138.8625,62.506 C138.8895,62.236 138.8355,62.047 138.6735,61.885 C138.4035,61.588 137.9445,61.561 137.6475,61.561 C137.3775,61.561 137.1075,61.588 136.8645,61.615 C136.6485,61.615 136.4595,61.642 136.3245,61.642 Z M143.2365,80.002 C142.6425,80.002 142.2915,80.38 142.2915,80.947 C142.2915,81.622 142.9125,82.054 143.8575,82.054 L143.9655,82.054 L144.0465,81.973 C144.5865,81.46 144.5325,81.001 144.4245,80.758 C144.2355,80.272 143.6685,80.002 143.2365,80.002 Z M144.7755,63.964 C144.8835,63.451 144.9915,62.911 144.7215,62.56 C144.5325,62.317 144.1815,62.128 143.8575,62.128 C143.5605,62.128 143.3175,62.263 143.1555,62.479 L143.1015,62.533 L143.1015,62.614 C142.6425,65.557 142.5885,69.04 142.5345,72.415 C142.5075,74.467 142.4805,76.384 142.3725,78.166 L142.3455,78.328 L142.4805,78.409 C142.5075,78.436 142.5345,78.436 142.5615,78.463 C142.8045,78.625 143.0745,78.814 143.5335,78.814 C143.6145,78.814 143.7225,78.787 143.8035,78.787 L143.9655,78.76 L144.0195,78.598 C144.5055,77.221 144.4515,75.493 144.3975,73.684 C144.3975,73.09 144.3705,72.523 144.3705,71.929 C144.3705,70.633 144.4785,69.283 144.5865,67.987 C144.6135,67.474 144.6675,66.961 144.6945,66.502 C144.7485,66.07 144.7215,65.692 144.6945,65.341 C144.6675,65.017 144.6675,64.693 144.6945,64.396 C144.7215,64.261 144.7485,64.099 144.7755,63.964 Z" id="Change-Me!" fill="#111111"></path>
        </g>
    </g>
</svg>