<?xml version="1.0" encoding="UTF-8"?>
<svg width="415px" height="118px" viewBox="0 0 415 118" version="1.1" xmlns="http://www.w3.org/2000/svg" xmlns:xlink="http://www.w3.org/1999/xlink">
    <!-- Generator: Sketch 42 (36781) - http://www.bohemiancoding.com/sketch -->
    <title>Group</title>
    <desc>Created with Sketch.</desc>
    <defs>
        <rect id="path-1" x="185.289088" y="63.7233444" width="203" height="2"></rect>
        <mask id="mask-2" maskContentUnits="userSpaceOnUse" maskUnits="objectBoundingBox" x="0" y="0" width="203" height="2" fill="white">
            <use xlink:href="#path-1"></use>
        </mask>
    </defs>
    <g id="Page-1" stroke="none" stroke-width="1" fill="none" fill-rule="evenodd">
        <g id="Group" transform="translate(225.494901, 35.721817) rotate(16.000000) translate(-225.494901, -35.721817) translate(4.494901, -38.278183)">
            <g id="down-right-arrow" transform="translate(389.877028, 59.449148) rotate(21.000000) translate(-389.877028, -59.449148) translate(348.377028, 23.949148)" fill="#CCCCCC">
                <path d="M82.0117345,63.4665273 C78.2119016,61.5133358 74.9361836,58.6486549 71.1363507,56.6954635 C70.3501784,56.3048252 69.1707058,56.5654635 68.9088624,57.6069528 C68.646805,59.0392932 68.3847475,60.4716337 68.3847475,61.9039741 C52.9233585,62.6852507 36.2829251,66.0707826 21.2146222,60.9924847 C10.077181,57.2163145 10.2082097,45.6273783 9.94615225,35.6009954 C9.81512353,31.3039741 9.94615225,26.8769528 10.077181,22.449506 C12.9598128,21.4078039 16.4975883,19.1941869 16.4975883,16.329506 C16.4975883,15.5482294 15.5803872,15.0273783 14.9252436,15.4180166 C13.7459851,16.0690805 13.0908415,17.2409954 12.1736405,18.1524847 C11.5184969,18.6733358 10.8633533,19.0639741 10.2082097,19.4546124 C10.3392384,17.2409954 10.3392384,14.8971656 10.3392384,12.6835486 C13.0908415,11.1209954 16.2355308,8.77716558 17.2837606,5.91248473 C17.6768468,5.00099537 16.3665596,4.08950601 15.5803872,4.61035707 C14.4011287,5.52184643 13.4839277,6.69376133 12.3046692,7.60525069 C11.6495256,8.25631452 10.8633533,8.77716558 10.2082097,9.29801664 C10.077181,6.69376133 9.94615225,4.08950601 9.68409481,1.48525069 C9.55306609,0.313335794 7.84969272,0.183123028 7.718664,1.48525069 C7.58763528,4.21971877 7.45660656,6.82397409 7.32557784,9.55844218 C6.01529063,8.12610175 4.83603214,6.69376133 4.04985982,5.13120813 C3.65677366,4.21971877 2.08442901,4.8707826 2.34648645,5.78227196 C3.2636875,8.51674005 5.36014703,10.4699315 6.80146295,12.9439741 C6.93249167,13.0741869 7.06352039,13.2043996 7.19454912,13.3346124 C7.06352039,15.1575911 7.06352039,16.8503571 6.93249167,18.6733358 C5.49117575,17.5014209 3.78780238,16.4597188 2.47751517,15.0273783 C1.82237157,14.2461018 0.381055643,15.2878039 1.03619925,16.1992932 C2.73957261,18.543123 5.49117575,19.8452507 6.80146295,22.449506 C6.80146295,22.449506 6.80146295,22.5797188 6.93249167,22.5797188 C6.80146295,28.3090805 6.80146295,33.9082294 6.93249167,39.6373783 C7.32557784,48.2316337 7.98072144,56.8254635 15.711416,61.9037613 C22.9179956,66.5914209 33.1382358,66.7216337 41.3930452,66.7216337 C50.4340269,66.7216337 59.3439799,65.5497188 68.2539329,65.0288677 L68.2539329,68.9352507 C68.2539329,70.4978039 70.3503925,70.6280166 70.8742932,69.4561018 C72.3156092,69.84674 73.8879538,69.0654635 75.198241,68.6748252 C77.2947006,68.0235486 79.5221888,67.2424847 81.6186483,66.3307826 C82.7979068,65.8105698 83.3220217,64.1178039 82.0117345,63.4665273 L82.0117345,63.4665273 Z" id="Shape"></path>
            </g>
            <path d="M0.580498866,121.971068 C0.580498866,121.971068 -3.41950113,111.971069 9.58049887,101.971068 C22.5804989,91.9710668 186.580499,47.9710681 201.580499,47.9710681 C216.580499,47.9710681 235.580499,40.9710681 243.580499,38.9710681 C251.580499,36.9710681 382.580499,-7.02893191 394.580499,0.97106809 C406.580499,8.97106809 395.580499,46.9710668 395.580499,48.9710681 C395.580499,50.9710693 381.580499,64.9710668 366.580499,64.9710681 C351.580499,64.9710693 294.580499,91.9710668 276.580499,96.9710681 C258.580499,101.971069 182.580499,134.971067 135.580499,134.971068 C88.5804989,134.971069 89.5804993,134.971069 50.5804989,140.971069 C11.5804984,146.971069 0.580498866,121.971068 0.580498866,121.971068 Z" id="Path-5" fill="#CCCCCC"></path>
            <path d="M15.7745749,77.5941812 L15.7745749,77.6211812 C16.3955749,78.7821812 17.7455749,80.7801812 18.8795749,81.2931812 C19.3655749,81.5901812 19.9325749,81.7251812 20.6075749,81.7251812 C21.9305749,81.7251812 23.4155749,81.1041812 24.1985749,80.5101812 L24.2795749,80.4291812 L24.3065749,80.3481812 C24.3335749,80.2941812 24.4685749,80.1051812 24.5765749,79.9431812 C25.1165749,79.1871812 25.5215749,78.5391812 25.2785749,78.0801812 C25.1705749,77.8371812 24.9275749,77.7291812 24.5765749,77.7291812 C24.1175749,77.7291812 23.8205749,78.2691812 23.3885749,79.1061812 C23.3075749,79.2681812 23.2265749,79.4301812 23.1455749,79.5651812 C23.0105749,79.5921812 22.8485749,79.6461812 22.6595749,79.7271812 C22.1195749,79.8891812 21.4445749,80.1321812 20.7425749,80.1321812 C20.4725749,80.1321812 20.2025749,80.0781812 19.9865749,80.0241812 C19.2305749,79.7541812 17.7995749,78.2151812 17.2865749,77.3781812 C16.4765749,75.2721812 16.1795749,72.3831812 16.5305749,69.6291812 C16.8815749,66.8211812 17.8535749,64.4991812 19.1765749,63.3381812 L19.2305749,63.2841812 C19.6895749,62.5551812 20.4995749,62.1231812 21.3905749,62.1231812 C22.0115749,62.1231812 22.6325749,62.3121812 23.1725749,62.6901812 L23.1995749,62.6901812 C23.3885749,62.7981812 23.5505749,62.9601812 23.6855749,63.1221812 C23.9555749,63.3921812 24.2525749,63.7161812 24.8195749,63.7161812 C24.9815749,63.7161812 25.1435749,63.6891812 25.3055749,63.6351812 L25.5755749,63.5811812 L25.5215749,63.3111812 C25.3595749,62.5821812 24.7115749,61.9071812 23.7125749,61.3941812 C22.7945749,60.9081812 21.6335749,60.6381812 20.5535749,60.6381812 C20.1215749,60.6381812 19.6895749,60.6651812 19.3115749,60.7461812 L19.2575749,60.7731812 L19.2305749,60.7731812 C17.2865749,61.9341812 15.8015749,64.6341812 15.1535749,68.2251812 C14.8565749,69.8451812 14.7485749,71.5461812 14.8295749,73.1391812 C14.9375749,74.8131812 15.2615749,76.3521812 15.7745749,77.5941812 Z M29.5175749,70.7901812 C30.2195749,70.6821812 30.9215749,70.5201812 31.5965749,70.3851812 C33.1625749,70.0611812 34.7555749,69.7101812 36.4835749,69.7101812 C36.8075749,69.7101812 37.1315749,69.7371812 37.4285749,69.7641812 C37.2665749,72.7611812 37.4015749,76.4601812 37.8605749,80.1861812 L37.8875749,80.4021812 L38.1305749,80.4021812 C38.2655749,80.4021812 38.3465749,80.4291812 38.4275749,80.4291812 C38.4815749,80.4291812 38.5625749,80.4561812 38.6165749,80.4561812 C38.7245749,80.4561812 38.8055749,80.4291812 38.9405749,80.4021812 L39.1295749,80.3751812 L39.1565749,80.1861812 C39.3455749,79.0521812 39.2105749,77.4321812 39.0755749,75.7311812 C38.9945749,74.5971812 38.9135749,73.4361812 38.9135749,72.4101812 C38.9135749,71.0331812 39.0215749,69.6291812 39.1025749,68.1441812 C39.2105749,66.6321812 39.3185749,65.0931812 39.3185749,63.5001812 L39.3185749,63.1221812 C39.3455749,62.3391812 39.3725749,61.4751812 38.9675749,61.0701812 C38.8325749,60.9351812 38.6165749,60.8541812 38.4005749,60.8811812 L38.3465749,60.8811812 C38.0495749,60.9891812 37.9955749,61.0701812 37.9145749,61.2861812 C37.8875749,61.2861812 37.8875749,61.3131812 37.8875749,61.3401812 L37.8605749,61.3671812 C37.6175749,62.1231812 37.6175749,63.3651812 37.6445749,64.6881812 C37.6715749,65.9301812 37.6715749,67.2261812 37.4555749,68.0631812 C35.0255749,68.0631812 32.8385749,68.5491812 30.7055749,69.0081812 C30.3005749,69.0891812 29.8955749,69.1701812 29.5175749,69.2511812 C29.4635749,68.1171812 29.4905749,67.0371812 29.5175749,66.0111812 C29.5715749,64.5261812 29.5985749,63.1491812 29.4365749,61.7991812 L29.4095749,61.6371812 L29.3015749,61.5831812 C28.9505749,61.4211812 28.5995749,61.3671812 28.3565749,61.3401812 L28.2215749,61.3401812 L28.1405749,61.4211812 C27.8165749,61.7451812 27.8435749,62.2311812 27.8975749,62.6631812 L27.8975749,63.2031812 C27.5465749,70.0881812 27.7625749,76.0551812 28.5185749,80.9691812 L28.5185749,80.9961812 L28.5455749,81.0231812 C28.5725749,81.1581812 28.7345749,81.3741812 29.2205749,81.3741812 C29.4095749,81.3741812 29.7065749,81.3201812 29.8685749,81.2121812 L29.9765749,81.1311812 L29.9765749,80.9961812 C29.9765749,79.4031812 29.8685749,77.7561812 29.7605749,76.1631812 C29.6255749,74.3811812 29.4905749,72.5451812 29.5175749,70.7901812 Z M50.0915749,60.7191812 L50.0645749,60.7191812 C49.3895749,60.7461812 48.6605749,60.7731812 47.8775749,60.7731812 C45.8255749,60.8001812 43.6925749,60.8271812 42.3425749,61.3941812 L42.1535749,61.4481812 L42.1535749,61.6641812 C42.3155749,64.6881812 42.1805749,68.0631812 42.0455749,71.6001812 C41.9375749,74.8131812 41.8025749,78.1341812 41.9105749,81.1851812 L41.9375749,81.3741812 L42.0995749,81.4281812 C42.8015749,81.6441812 43.6385749,81.7251812 44.6645749,81.7251812 C45.5825749,81.7251812 46.5275749,81.6441812 47.4455749,81.5901812 C48.3365749,81.5091812 49.1465749,81.4551812 49.9295749,81.4551812 C50.1725749,81.4551812 50.4425749,81.4821812 50.7125749,81.5361812 C51.0095749,81.5901812 51.3335749,81.6441812 51.6305749,81.6441812 C52.2515749,81.6441812 52.6565749,81.4011812 52.8455749,80.8611812 L52.9535749,80.6721812 L52.7645749,80.5371812 C52.1975749,80.1861812 51.3605749,79.9971812 50.0915749,79.9971812 C49.2815749,79.9971812 48.4175749,80.0781812 47.5805749,80.1591812 C46.7165749,80.2131812 45.8255749,80.2941812 44.9615749,80.2941812 C44.4215749,80.2941812 43.9625749,80.2671812 43.5035749,80.2131812 C43.5305749,78.1071812 43.6655749,76.3521812 43.8275749,74.3271812 C43.8815749,73.6521812 43.9355749,72.9231812 43.9895749,72.1671812 C44.5025749,72.1941812 45.0155749,72.1941812 45.5285749,72.1941812 C46.9865749,72.1941812 48.4175749,72.1401812 49.7135749,72.0051812 C49.9025749,71.9781812 50.0915749,71.9781812 50.2805749,71.9781812 C50.9555749,71.9241812 51.6845749,71.8971812 52.1435749,71.4381812 L52.3055749,71.2761812 L52.1975749,71.1141812 C51.9005749,70.6551812 51.4685749,70.4121812 50.8205749,70.4121812 C50.4695749,70.4121812 50.0915749,70.4931812 49.7135749,70.5471812 C49.4435749,70.5741812 49.1735749,70.6281812 48.9305749,70.6551812 C48.3365749,70.6821812 47.6885749,70.7091812 46.9865749,70.7091812 C46.0685749,70.7091812 45.0425749,70.6821812 43.9355749,70.5741812 C44.0165749,67.7661812 44.0165749,65.0931812 44.0165749,62.6631812 C45.3935749,62.3661812 47.2835749,62.3121812 48.9845749,62.2851812 C49.4705749,62.2581812 49.9025749,62.2581812 50.3345749,62.2311812 L50.6585749,62.2311812 C50.7935749,62.2311812 50.9285749,62.2581812 51.0635749,62.2581812 C51.6305749,62.2581812 52.2245749,62.1771812 52.5755749,61.7181812 L52.6295749,61.6641812 L52.6295749,61.5831812 C52.6565749,61.3131812 52.6025749,61.1241812 52.4405749,60.9621812 C52.1705749,60.6651812 51.7115749,60.6381812 51.4145749,60.6381812 C51.1445749,60.6381812 50.8745749,60.6651812 50.6315749,60.6921812 C50.4155749,60.6921812 50.2265749,60.7191812 50.0915749,60.7191812 Z M60.2435749,81.5631812 L60.6755749,81.5631812 C61.8905749,81.5631812 63.2135749,81.0771812 64.2665749,80.1861812 C64.3475749,80.1321812 65.8595749,78.8091812 65.7245749,77.6211812 C65.6705749,77.1621812 65.3735749,76.8111812 64.8605749,76.5681812 L64.6715749,76.4601812 L64.5365749,76.6491812 C64.2395749,77.0271812 64.0235749,77.4591812 63.8345749,77.8641812 C63.6185749,78.3501812 63.4025749,78.8091812 63.0245749,79.1331812 C62.3765749,79.6731812 61.5665749,79.9701812 60.7025749,79.9701812 C59.5415749,79.9701812 58.3535749,79.4031812 57.7325749,78.5121812 C56.9225749,77.4321812 56.3825749,75.7041812 56.1665749,73.6251812 C55.9505749,71.6001812 56.0855749,69.4671812 56.5445749,67.6311812 C57.1115749,65.3361812 58.1375749,63.7431812 59.4065749,63.1221812 C60.1085749,62.7711812 61.0535749,62.5551812 61.8365749,62.5551812 C62.2685749,62.5551812 62.6195749,62.6091812 62.9435749,62.7171812 C63.1055749,62.8251812 63.2675749,62.9601812 63.4025749,63.0951812 C63.6725749,63.3921812 64.0235749,63.7431812 64.7525749,63.7431812 C64.8065749,63.7431812 64.8605749,63.7161812 64.9415749,63.7161812 L65.1575749,63.7161812 L65.1845749,63.5001812 C65.3465749,62.4201812 64.3205749,61.8531812 63.8075749,61.5831812 C63.1325749,61.2321812 62.3495749,61.0701812 61.4585749,61.0701812 C60.2975749,61.0701812 59.0555749,61.3671812 58.0295749,61.9071812 C56.9225749,62.5011812 56.0315749,63.6081812 55.3835749,65.1741812 C54.8705749,66.4701812 54.5465749,68.0901812 54.4115749,69.8721812 C54.2225749,73.1121812 54.5195749,75.7311812 55.3025749,77.6751812 C56.2745749,79.9971812 57.9215749,81.2931812 60.2435749,81.5631812 Z M69.8825749,72.7611812 C70.3685749,72.3831812 70.8275749,71.9781812 71.2325749,71.6001812 C71.8265749,71.0331812 72.3935749,70.5201812 73.0685749,70.0881812 C74.0945749,73.0311812 75.5525749,76.1901812 77.1995749,79.0251812 C77.2535749,79.1331812 77.3075749,79.2411812 77.3615749,79.3761812 C77.7395749,80.1051812 78.2525749,81.2121812 79.2515749,81.2121812 C79.4405749,81.2121812 79.6295749,81.1851812 79.8185749,81.1041812 L80.0345749,80.9961812 L79.9805749,80.7801812 C79.6565749,79.7541812 79.1435749,78.8631812 78.6305749,78.0261812 C78.1445749,77.1891812 77.6315749,76.3521812 77.1725749,75.5151812 C76.3355749,73.9761812 75.6875749,72.2211812 75.0665749,70.5471812 C74.8505749,69.9801812 74.6345749,69.4131812 74.4185749,68.9001812 C75.0395749,68.4141812 75.6065749,67.8471812 76.1735749,67.3071812 C76.7135749,66.7671812 77.2265749,66.2811812 77.7665749,65.8491812 C77.8475749,65.7681812 77.9285749,65.7141812 78.0365749,65.6601812 C78.4145749,65.3901812 78.8735749,65.0391812 78.8465749,64.4721812 L78.8465749,64.3641812 L78.7385749,64.2831812 C78.4955749,64.0671812 78.2255749,63.9321812 77.9285749,63.9321812 C77.2805749,63.9321812 76.7945749,64.4991812 76.3895749,64.9581812 C76.2545749,65.1201812 76.1465749,65.2551812 76.0385749,65.3361812 C73.8245749,67.3341812 71.8265749,69.1161812 69.8015749,70.6281812 C69.7745749,69.7371812 69.8015749,68.7651812 69.8015749,67.8201812 C69.8555749,65.6061812 69.8825749,63.2841812 69.3965749,61.5561812 L69.3425749,61.4211812 L69.2345749,61.3941812 C69.2075749,61.3671812 69.2075749,61.3671812 69.1805749,61.3671812 C69.0185749,61.3131812 68.7215749,61.1781812 68.4515749,61.1781812 C68.1005749,61.1781812 67.8845749,61.3941812 67.8845749,61.7181812 L67.8845749,61.7451812 C68.1005749,64.4451812 68.1545749,66.9831812 68.0465749,69.1161812 C67.9655749,71.2761812 68.1545749,73.4631812 68.3435749,75.5421812 C68.4515749,76.8111812 68.5595749,77.9991812 68.6135749,79.1601812 L68.6135749,79.5651812 C68.6135749,80.0511812 68.5865749,80.5911812 68.9105749,81.0231812 L68.9645749,81.0771812 L69.0725749,81.1041812 C69.2345749,81.1581812 69.3425749,81.1581812 69.4505749,81.1581812 C69.5315749,81.1581812 69.6125749,81.1581812 69.6935749,81.1311812 L69.9635749,81.1311812 L70.1795749,81.1041812 L70.2065749,80.8881812 C70.4495749,79.1601812 70.2605749,77.2431812 70.0985749,75.4071812 C70.0175749,74.4891812 69.9365749,73.5981812 69.8825749,72.7611812 Z M95.4785749,81.4821812 C94.1285749,81.4821812 92.7785749,80.9961812 91.5905749,80.0781812 C90.5105749,79.2411812 89.6195749,78.1071812 89.0795749,76.8651812 C88.3235749,75.0291812 87.9725749,72.9231812 88.0535749,70.7361812 C88.1345749,68.5491812 88.6475749,66.4971812 89.5115749,64.8231812 C90.6455749,62.6901812 92.2655749,61.3131812 94.2365749,60.8811812 C94.2905749,60.8811812 94.3175749,60.8541812 94.3715749,60.8541812 C94.3985749,60.8541812 94.4255749,60.8811812 94.4525749,60.8811812 C94.6685749,60.8541812 94.9925749,60.8271812 95.1545749,60.8271812 C95.7485749,60.8271812 96.5585749,60.8811812 97.0175749,61.0431812 C98.0165749,61.3131812 99.1505749,61.9341812 100.149575,62.8251812 C101.148575,63.6891812 101.958575,64.6881812 102.444575,65.6871812 C102.903575,66.6321812 103.146575,67.6851812 103.146575,68.9541812 C103.146575,70.0611812 102.984575,71.3031812 102.633575,72.7611812 C101.715575,76.8111812 100.446575,79.3491812 98.7725749,80.4831812 C97.7195749,81.1311812 96.6125749,81.4821812 95.4785749,81.4821812 Z M92.0765749,78.5121812 C92.8055749,79.3491812 93.5615749,79.9161812 94.1285749,80.0241812 C94.3175749,80.0511812 94.4795749,80.0511812 94.6955749,80.0511812 C96.0455749,80.0511812 97.5845749,79.3221812 98.1785749,78.7821812 C99.7445749,77.2971812 100.446575,74.8131812 100.905575,72.5451812 C101.202575,71.1681812 101.580575,69.4401812 101.499575,68.2521812 C101.364575,66.3351812 99.9335749,64.7961812 99.1775749,63.9591812 C98.0975749,62.8521812 97.0445749,62.3931812 95.5325749,62.3931812 C95.2085749,62.3931812 94.8305749,62.4201812 94.4525749,62.4741812 C93.0215749,62.9331812 91.8335749,64.0941812 90.9965749,65.7951812 C89.5655749,68.7651812 89.4035749,72.8421812 90.5915749,76.1901812 C90.8345749,76.8651812 91.4285749,77.7831812 92.0765749,78.5121812 Z M108.141575,80.2671812 C109.140575,81.0231812 110.436575,81.4551812 111.759575,81.4551812 C113.406575,81.4551812 114.783575,80.8071812 115.485575,79.7271812 C116.700575,77.7021812 117.078575,74.3541812 117.159575,71.8701812 C117.267575,69.0351812 117.078575,65.7681812 116.619575,63.1761812 L116.619575,63.1491812 C116.592575,63.0411812 116.592575,62.9061812 116.565575,62.7711812 C116.538575,62.4471812 116.511575,62.1501812 116.376575,61.8801812 C116.160575,61.5021812 115.809575,61.3401812 115.296575,61.3671812 L115.134575,61.3941812 L115.080575,61.5291812 C114.729575,62.3661812 114.891575,63.3111812 115.080575,64.2291812 C115.134575,64.5261812 115.188575,64.8501812 115.215575,65.1741812 C115.458575,67.7931812 115.539575,70.1421812 115.431575,71.8971812 C115.377575,73.1121812 115.188575,74.9481812 114.810575,76.5411812 C114.378575,78.3771812 113.784575,79.5111812 113.136575,79.8081812 C112.758575,79.9971812 112.326575,80.0781812 111.840575,80.0781812 C110.706575,80.0781812 109.572575,79.5921812 109.059575,79.1331812 C108.519575,78.6471812 108.060575,77.7291812 107.844575,77.1081812 L107.844575,77.0811812 C107.250575,75.4611812 107.007575,73.3011812 106.818575,70.5471812 C106.764575,69.7641812 106.683575,68.9541812 106.575575,68.0901812 C106.413575,66.4701812 106.251575,64.7961812 106.332575,63.4731812 C106.359575,63.2301812 106.413575,63.0141812 106.440575,62.7711812 C106.521575,62.2581812 106.629575,61.7451812 106.332575,61.4211812 C106.170575,61.2321812 105.873575,61.1241812 105.495575,61.1241812 L105.198575,61.1241812 L105.117575,61.2591812 C104.874575,61.6101812 104.793575,62.2581812 104.766575,62.7171812 C104.577575,65.0931812 104.793575,67.4691812 105.009575,69.9801812 C105.036575,70.2501812 105.063575,70.4931812 105.063575,70.7361812 C105.360575,74.4891812 105.873575,78.6201812 108.141575,80.2671812 Z M123.936575,62.8791812 C124.152575,68.3331812 124.233575,73.3011812 124.017575,79.5111812 C124.017575,79.5921812 124.017575,79.6731812 123.990575,79.7811812 C123.990575,80.1861812 123.963575,80.6721812 124.260575,80.9691812 C124.395575,81.1311812 124.584575,81.1851812 124.800575,81.1851812 C124.935575,81.1851812 125.070575,81.1851812 125.232575,81.1311812 L125.340575,81.1041812 L125.394575,81.0231812 C125.664575,80.5371812 125.637575,80.0241812 125.583575,79.5111812 L125.583575,78.9441812 C125.610575,77.9991812 125.610575,77.0001812 125.637575,75.9741812 C125.718575,71.6001812 125.826575,66.6591812 125.610575,62.9601812 C125.826575,62.9601812 126.069575,62.9871812 126.312575,62.9871812 C126.609575,62.9871812 126.933575,62.9601812 127.230575,62.9601812 C127.527575,62.9601812 127.851575,62.9331812 128.202575,62.9331812 C128.310575,62.9331812 128.472575,62.9601812 128.607575,62.9601812 C128.769575,62.9601812 128.931575,62.9871812 129.093575,62.9871812 C129.444575,62.9871812 129.903575,62.9331812 130.146575,62.5011812 L130.227575,62.3931812 L130.173575,62.2581812 C129.795575,61.4211812 128.904575,61.3131812 128.148575,61.3131812 C127.878575,61.3131812 127.608575,61.3401812 127.338575,61.3401812 C127.068575,61.3671812 126.798575,61.3671812 126.528575,61.3671812 L126.177575,61.3671812 C125.286575,61.3401812 124.476575,61.3131812 123.693575,61.2591812 C122.694575,61.2051812 121.749575,61.1511812 120.804575,61.1511812 C119.940575,61.1511812 119.130575,61.2051812 118.347575,61.2861812 L118.023575,61.3131812 L118.104575,61.6101812 C118.347575,62.7171812 119.535575,62.8521812 120.507575,62.8521812 C120.885575,62.8521812 121.290575,62.8251812 121.695575,62.7981812 C122.073575,62.7711812 122.478575,62.7711812 122.829575,62.7711812 C123.315575,62.7711812 123.666575,62.7981812 123.936575,62.8791812 Z M139.515575,62.9331812 C139.812575,62.9331812 140.136575,62.9061812 140.460575,62.8791812 C140.595575,62.8521812 140.703575,62.8521812 140.838575,62.8251812 L141.837575,62.8251812 C142.593575,62.8251812 143.214575,62.8521812 143.700575,62.8791812 C144.024575,66.7131812 143.889575,70.6281812 143.754575,74.4081812 C143.727575,75.0831812 143.700575,75.7311812 143.700575,76.3791812 L143.673575,76.5951812 C143.592575,78.0531812 143.511575,79.5651812 143.916575,80.9151812 L143.943575,81.0501812 L144.051575,81.1041812 C144.267575,81.1851812 144.429575,81.2391812 144.591575,81.2391812 C144.807575,81.2391812 144.996575,81.1581812 145.131575,80.9961812 C145.563575,80.5371812 145.509575,79.4571812 145.482575,78.5121812 C145.455575,78.2691812 145.455575,78.0261812 145.455575,77.8371812 L145.455575,77.8101812 C145.374575,77.0001812 145.455575,76.2171812 145.536575,75.4611812 C145.563575,75.2181812 145.590575,75.0021812 145.617575,74.7861812 C145.725575,72.1671812 145.671575,69.7911812 145.590575,67.4691812 C145.536575,65.8761812 145.509575,64.3641812 145.536575,62.8521812 C145.698575,62.8521812 145.914575,62.8791812 146.130575,62.9061812 C146.778575,62.9601812 147.561575,63.0411812 148.263575,63.0411812 C148.803575,63.0411812 149.208575,62.9871812 149.505575,62.9061812 C150.072575,62.7441812 150.207575,62.4201812 150.207575,62.2041812 C150.207575,61.9881812 150.153575,61.7991812 150.018575,61.6641812 C149.802575,61.3941812 149.370575,61.2861812 148.668575,61.2861812 C148.344575,61.2861812 147.993575,61.3131812 147.669575,61.3401812 C147.345575,61.3671812 147.075575,61.3671812 146.832575,61.3671812 L146.589575,61.3671812 C145.320575,61.2591812 143.565575,61.2051812 142.107575,61.2051812 C141.783575,61.2051812 141.432575,61.2051812 141.108575,61.1781812 C140.757575,61.1781812 140.460575,61.1511812 140.163575,61.1511812 C139.515575,61.1511812 138.759575,61.2051812 138.192575,61.5831812 L138.084575,61.6641812 L138.084575,61.7721812 C138.057575,62.0961812 138.138575,62.3661812 138.300575,62.5551812 C138.624575,62.8791812 139.137575,62.9331812 139.515575,62.9331812 Z M154.932575,70.7901812 C155.634575,70.6821812 156.336575,70.5201812 157.011575,70.3851812 C158.577575,70.0611812 160.170575,69.7101812 161.898575,69.7101812 C162.222575,69.7101812 162.546575,69.7371812 162.843575,69.7641812 C162.681575,72.7611812 162.816575,76.4601812 163.275575,80.1861812 L163.302575,80.4021812 L163.545575,80.4021812 C163.680575,80.4021812 163.761575,80.4291812 163.842575,80.4291812 C163.896575,80.4291812 163.977575,80.4561812 164.031575,80.4561812 C164.139575,80.4561812 164.220575,80.4291812 164.355575,80.4021812 L164.544575,80.3751812 L164.571575,80.1861812 C164.760575,79.0521812 164.625575,77.4321812 164.490575,75.7311812 C164.409575,74.5971812 164.328575,73.4361812 164.328575,72.4101812 C164.328575,71.0331812 164.436575,69.6291812 164.517575,68.1441812 C164.625575,66.6321812 164.733575,65.0931812 164.733575,63.5001812 L164.733575,63.1221812 C164.760575,62.3391812 164.787575,61.4751812 164.382575,61.0701812 C164.247575,60.9351812 164.031575,60.8541812 163.815575,60.8811812 L163.761575,60.8811812 C163.464575,60.9891812 163.410575,61.0701812 163.329575,61.2861812 C163.302575,61.2861812 163.302575,61.3131812 163.302575,61.3401812 L163.275575,61.3671812 C163.032575,62.1231812 163.032575,63.3651812 163.059575,64.6881812 C163.086575,65.9301812 163.086575,67.2261812 162.870575,68.0631812 C160.440575,68.0631812 158.253575,68.5491812 156.120575,69.0081812 C155.715575,69.0891812 155.310575,69.1701812 154.932575,69.2511812 C154.878575,68.1171812 154.905575,67.0371812 154.932575,66.0111812 C154.986575,64.5261812 155.013575,63.1491812 154.851575,61.7991812 L154.824575,61.6371812 L154.716575,61.5831812 C154.365575,61.4211812 154.014575,61.3671812 153.771575,61.3401812 L153.636575,61.3401812 L153.555575,61.4211812 C153.231575,61.7451812 153.258575,62.2311812 153.312575,62.6631812 L153.312575,63.2031812 C152.961575,70.0881812 153.177575,76.0551812 153.933575,80.9691812 L153.933575,80.9961812 L153.960575,81.0231812 C153.987575,81.1581812 154.149575,81.3741812 154.635575,81.3741812 C154.824575,81.3741812 155.121575,81.3201812 155.283575,81.2121812 L155.391575,81.1311812 L155.391575,80.9961812 C155.391575,79.4031812 155.283575,77.7561812 155.175575,76.1631812 C155.040575,74.3811812 154.905575,72.5451812 154.932575,70.7901812 Z M175.506575,60.7191812 L175.479575,60.7191812 C174.804575,60.7461812 174.075575,60.7731812 173.292575,60.7731812 C171.240575,60.8001812 169.107575,60.8271812 167.757575,61.3941812 L167.568575,61.4481812 L167.568575,61.6641812 C167.730575,64.6881812 167.595575,68.0631812 167.460575,71.6001812 C167.352575,74.8131812 167.217575,78.1341812 167.325575,81.1851812 L167.352575,81.3741812 L167.514575,81.4281812 C168.216575,81.6441812 169.053575,81.7251812 170.079575,81.7251812 C170.997575,81.7251812 171.942575,81.6441812 172.860575,81.5901812 C173.751575,81.5091812 174.561575,81.4551812 175.344575,81.4551812 C175.587575,81.4551812 175.857575,81.4821812 176.127575,81.5361812 C176.424575,81.5901812 176.748575,81.6441812 177.045575,81.6441812 C177.666575,81.6441812 178.071575,81.4011812 178.260575,80.8611812 L178.368575,80.6721812 L178.179575,80.5371812 C177.612575,80.1861812 176.775575,79.9971812 175.506575,79.9971812 C174.696575,79.9971812 173.832575,80.0781812 172.995575,80.1591812 C172.131575,80.2131812 171.240575,80.2941812 170.376575,80.2941812 C169.836575,80.2941812 169.377575,80.2671812 168.918575,80.2131812 C168.945575,78.1071812 169.080575,76.3521812 169.242575,74.3271812 C169.296575,73.6521812 169.350575,72.9231812 169.404575,72.1671812 C169.917575,72.1941812 170.430575,72.1941812 170.943575,72.1941812 C172.401575,72.1941812 173.832575,72.1401812 175.128575,72.0051812 C175.317575,71.9781812 175.506575,71.9781812 175.695575,71.9781812 C176.370575,71.9241812 177.099575,71.8971812 177.558575,71.4381812 L177.720575,71.2761812 L177.612575,71.1141812 C177.315575,70.6551812 176.883575,70.4121812 176.235575,70.4121812 C175.884575,70.4121812 175.506575,70.4931812 175.128575,70.5471812 C174.858575,70.5741812 174.588575,70.6281812 174.345575,70.6551812 C173.751575,70.6821812 173.103575,70.7091812 172.401575,70.7091812 C171.483575,70.7091812 170.457575,70.6821812 169.350575,70.5741812 C169.431575,67.7661812 169.431575,65.0931812 169.431575,62.6631812 C170.808575,62.3661812 172.698575,62.3121812 174.399575,62.2851812 C174.885575,62.2581812 175.317575,62.2581812 175.749575,62.2311812 L176.073575,62.2311812 C176.208575,62.2311812 176.343575,62.2581812 176.478575,62.2581812 C177.045575,62.2581812 177.639575,62.1771812 177.990575,61.7181812 L178.044575,61.6641812 L178.044575,61.5831812 C178.071575,61.3131812 178.017575,61.1241812 177.855575,60.9621812 C177.585575,60.6651812 177.126575,60.6381812 176.829575,60.6381812 C176.559575,60.6381812 176.289575,60.6651812 176.046575,60.6921812 C175.830575,60.6921812 175.641575,60.7191812 175.506575,60.7191812 Z M189.816575,81.2661812 C189.681575,81.2931812 189.573575,81.3201812 189.465575,81.3201812 C189.168575,81.3201812 188.898575,81.2121812 188.709575,80.9961812 C188.142575,80.4021812 188.169575,79.1331812 188.223575,78.2151812 L188.223575,77.7021812 C188.223575,76.7301812 188.142575,75.6231812 188.061575,74.5431812 C188.034575,74.0571812 188.007575,73.5711812 187.980575,73.1121812 C187.926575,71.3571812 187.980575,69.6021812 188.034575,67.8741812 C188.088575,65.6601812 188.142575,63.5541812 187.980575,61.6371812 L187.953575,61.3131812 L188.277575,61.3401812 C188.439575,61.3671812 188.574575,61.3671812 188.709575,61.3671812 C189.114575,61.3671812 189.492575,61.3131812 189.897575,61.2591812 C190.329575,61.1781812 190.788575,61.1241812 191.328575,61.1241812 L191.679575,61.1241812 C194.055575,61.3401812 196.539575,63.1491812 197.565575,65.4441812 C198.375575,67.4151812 198.321575,69.4401812 197.376575,71.1411812 C196.917575,71.9781812 196.269575,72.7071812 195.486575,73.2741812 C194.676575,73.8411812 193.758575,74.2191812 192.786575,74.3811812 L192.759575,74.3811812 C192.381575,74.4351812 191.922575,74.4621812 191.328575,74.4621812 L190.410575,74.4621812 C190.221575,74.4621812 190.032575,74.4621812 189.870575,74.4351812 C189.870575,75.2991812 189.924575,76.1361812 190.005575,76.9731812 C190.113575,78.4041812 190.194575,79.7541812 190.005575,81.0501812 L189.978575,81.2391812 L189.816575,81.2661812 Z M189.735575,62.9061812 C189.897575,65.0391812 189.870575,66.9021812 189.816575,68.8731812 C189.789575,70.1421812 189.762575,71.4381812 189.789575,72.9231812 C190.032575,72.9501812 190.248575,72.9501812 190.491575,72.9501812 C192.381575,72.9501812 194.109575,72.3021812 195.216575,71.1411812 C196.026575,70.2771812 196.458575,69.2241812 196.404575,68.0631812 C196.296575,65.2011812 193.785575,62.7171812 191.031575,62.7171812 C190.599575,62.7171812 190.167575,62.7711812 189.735575,62.9061812 Z M198.969575,61.9071812 L198.996575,62.0961812 C199.104575,62.9331812 200.076575,62.9331812 200.373575,62.9331812 C200.643575,62.9331812 200.886575,62.9061812 201.156575,62.8791812 C201.291575,62.8791812 201.399575,62.8791812 201.534575,62.8521812 C201.615575,64.6881812 201.588575,66.9021812 201.453575,68.7381812 C201.264575,71.0871812 201.345575,73.4901812 201.399575,75.8391812 C201.453575,77.2431812 201.480575,78.6201812 201.453575,79.8621812 C201.318575,79.8891812 201.156575,79.8891812 200.967575,79.8891812 C200.724575,79.9161812 200.454575,79.9161812 200.238575,79.9971812 C199.860575,80.1051812 199.725575,80.3751812 199.698575,80.5641812 L199.671575,80.7261812 L199.779575,80.8341812 C200.076575,81.1311812 200.454575,81.2661812 200.913575,81.2661812 C201.345575,81.2661812 201.804575,81.1311812 202.263575,81.0231812 C202.560575,80.9421812 202.830575,80.8611812 203.073575,80.8071812 C203.235575,80.8071812 203.370575,80.7801812 203.559575,80.7801812 C204.126575,80.7531812 204.801575,80.7261812 205.017575,80.1591812 L205.044575,80.0781812 L205.017575,79.9971812 C204.936575,79.5651812 204.639575,79.3491812 204.126575,79.3491812 C203.964575,79.3491812 203.748575,79.3761812 203.559575,79.4031812 C203.424575,79.4301812 203.235575,79.4301812 203.100575,79.4571812 C202.911575,76.0551812 202.992575,72.7341812 203.046575,69.5481812 C203.100575,67.1721812 203.154575,64.9581812 203.100575,62.7171812 L203.262575,62.7171812 C203.370575,62.7441812 203.478575,62.7441812 203.586575,62.7441812 C203.802575,62.7441812 204.288575,62.7441812 204.477575,62.3661812 L204.531575,62.2851812 L204.504575,62.2041812 C204.477575,61.8261812 204.288575,61.5561812 203.964575,61.3941812 C203.721575,61.2591812 203.397575,61.2051812 202.992575,61.2051812 C202.695575,61.2051812 202.398575,61.2321812 202.128575,61.2591812 C200.535575,61.3671812 199.590575,61.5561812 199.131575,61.7991812 L198.969575,61.9071812 Z M216.654575,61.1241812 L216.654575,61.2861812 C216.654575,63.3381812 216.816575,65.8221812 216.951575,68.4681812 C217.113575,70.9521812 217.464575,74.6241812 217.491575,76.7841812 C215.547575,71.5731812 213.225575,67.8741812 210.687575,63.3651812 C210.174575,62.6361812 209.310575,61.4481812 208.149575,61.4481812 C208.014575,61.4481812 207.879575,61.4751812 207.717575,61.5021812 L207.528575,61.5561812 L207.528575,61.7721812 C207.501575,62.6631812 207.447575,63.5541812 207.420575,64.4991812 C207.339575,67.0101812 207.204575,69.5751812 207.042575,72.1671812 C206.853575,75.3801812 206.718575,78.3231812 206.637575,80.9421812 L206.637575,81.1311812 L206.799575,81.2121812 C206.934575,81.2661812 207.096575,81.2931812 207.258575,81.2931812 C207.582575,81.2931812 207.906575,81.2121812 208.122575,81.1311812 L208.311575,81.0771812 L208.311575,80.8881812 C208.311575,80.6721812 208.419575,79.8891812 208.446575,78.8361812 C208.581575,74.9751812 209.040575,67.0641812 209.229575,64.2291812 C210.633575,66.3351812 212.172575,69.2781812 213.846575,72.3291812 C214.575575,73.5981812 215.196575,75.1911812 215.790575,76.7571812 C216.222575,77.8371812 216.627575,78.8631812 217.059575,79.7811812 L217.059575,79.8351812 C217.329575,80.4021812 217.707575,81.2931812 218.490575,81.2931812 C218.706575,81.2931812 218.922575,81.2121812 219.165575,81.0771812 L219.327575,80.9961812 L219.300575,80.8071812 C218.949575,77.6481812 218.895575,73.8681812 218.706575,70.2501812 C218.544575,67.1991812 218.463575,64.0671812 218.274575,61.3941812 L218.247575,61.2861812 L218.193575,61.2321812 C217.950575,60.9891812 217.680575,60.8811812 217.383575,60.8811812 C217.194575,60.8811812 216.978575,60.9351812 216.789575,61.0431812 L216.654575,61.1241812 Z M230.802575,71.1681812 C230.640575,71.1681812 230.451575,71.1411812 230.262575,71.1411812 C230.046575,71.1141812 229.830575,71.0871812 229.587575,71.0871812 C229.290575,71.0871812 228.399575,71.0871812 228.264575,71.9511812 L228.264575,72.1131812 L228.372575,72.2211812 C228.858575,72.5721812 229.479575,72.7611812 230.343575,72.7611812 C230.937575,72.7611812 231.612575,72.6801812 232.233575,72.5721812 C232.665575,72.5181812 233.070575,72.4911812 233.448575,72.4371812 C233.583575,73.1661812 233.583575,74.0031812 233.475575,75.0561812 C233.232575,77.0001812 232.638575,79.4031812 231.774575,79.8081812 L231.747575,79.8081812 C231.531575,79.9431812 231.180575,79.9971812 230.775575,79.9971812 C229.398575,79.9971812 227.481575,79.3221812 226.806575,78.9441812 L226.806575,78.9171812 C226.590575,78.8361812 226.428575,78.6201812 226.212575,78.4041812 C226.050575,78.2421812 225.888575,78.0531812 225.699575,77.8911812 C225.483575,77.7291812 225.240575,77.5671812 224.997575,77.4321812 C224.781575,77.2971812 224.565575,77.1621812 224.403575,77.0271812 C223.134575,75.8121812 222.540575,73.8681812 222.783575,71.5461812 C222.972575,69.4671812 223.836575,67.3341812 224.997575,65.9841812 C226.320575,64.4721812 228.102575,62.7441812 230.289575,62.7441812 L230.613575,62.7441812 C230.775575,62.7711812 230.910575,62.8251812 231.072575,62.9061812 C231.288575,63.0141812 231.531575,63.1221812 231.882575,63.1221812 C232.044575,63.1221812 232.179575,63.1221812 232.368575,63.0681812 L232.638575,62.9871812 L232.530575,62.6901812 C232.017575,61.3941812 230.883575,61.2321812 230.073575,61.2321812 C229.776575,61.2321812 229.452575,61.2591812 229.074575,61.3131812 C227.805575,61.4751812 226.239575,62.3391812 225.267575,63.1761812 C224.376575,63.9051812 223.161575,65.1741812 222.621575,66.1731812 C221.676575,67.7391812 221.055575,69.8721812 220.947575,71.8701812 C220.839575,73.5981812 221.082575,76.0011812 222.729575,77.6481812 C222.999575,77.9181812 223.350575,78.1341812 223.701575,78.3501812 C223.836575,78.4581812 223.998575,78.5391812 224.160575,78.6471812 C224.322575,78.7821812 224.484575,78.9711812 224.673575,79.1331812 C224.889575,79.3761812 225.105575,79.6191812 225.375575,79.8081812 C226.698575,80.6451812 229.047575,81.3201812 231.045575,81.4011812 L231.288575,81.4011812 C233.097575,81.4011812 233.880575,80.2941812 234.393575,79.2141812 L234.393575,79.1871812 C234.825575,78.2421812 235.149575,76.8921812 235.284575,75.4611812 C235.419575,74.0301812 235.365575,72.5721812 235.149575,71.3841812 L235.122575,71.2761812 L235.041575,71.1951812 C234.690575,70.9791812 234.258575,70.8981812 233.664575,70.8981812 C233.124575,70.8981812 232.557575,70.9521812 232.017575,71.0331812 C231.612575,71.0871812 231.180575,71.1411812 230.802575,71.1681812 Z M247.920575,61.6101812 L247.839575,61.5021812 C247.596575,61.2051812 247.164575,60.8811812 246.732575,60.8811812 C246.624575,60.8811812 246.516575,60.8811812 246.435575,60.9081812 L246.327575,60.9621812 L246.300575,61.0431812 C245.490575,62.4201812 244.950575,64.0941812 244.437575,65.7141812 C244.032575,67.0371812 243.627575,68.3871812 243.033575,69.5751812 C242.790575,69.1701812 242.520575,68.7651812 242.277575,68.3871812 C241.062575,66.5781812 239.847575,64.6881812 238.524575,63.0141812 C238.443575,62.9331812 238.362575,62.8251812 238.281575,62.7171812 C237.822575,62.0961812 237.228575,61.3131812 236.337575,61.3131812 L236.121575,61.3131812 L235.878575,61.3401812 L235.878575,61.6101812 C235.959575,62.4201812 236.553575,63.0681812 237.093575,63.6351812 C237.255575,63.8241812 237.390575,63.9861812 237.525575,64.1481812 C238.092575,64.8501812 238.659575,65.6061812 239.253575,66.5781812 C239.469575,66.9291812 239.712575,67.3341812 239.955575,67.7391812 C240.495575,68.6571812 241.089575,69.6831812 241.656575,70.4391812 C241.764575,70.5471812 241.872575,70.6821812 241.980575,70.8171812 C242.196575,71.0871812 242.466575,71.4111812 242.520575,71.6001812 C242.682575,72.3831812 242.574575,73.3821812 242.466575,74.3541812 C242.412575,74.7591812 242.358575,75.1371812 242.358575,75.5151812 C242.277575,76.4331812 242.277575,77.4051812 242.277575,78.2421812 C242.277575,78.6741812 242.277575,79.0521812 242.250575,79.4301812 L242.250575,79.8621812 C242.196575,80.2671812 242.169575,80.7531812 242.466575,81.0771812 C242.655575,81.2931812 242.925575,81.4011812 243.330575,81.4011812 L243.492575,81.4011812 L243.573575,81.2121812 C243.978575,80.2131812 243.978575,79.0521812 243.978575,77.9451812 C243.978575,77.5131812 243.978575,77.0811812 244.005575,76.6491812 C244.032575,76.1361812 244.032575,75.6231812 244.059575,75.1101812 C244.059575,74.0841812 244.086575,73.0581812 244.248575,72.0591812 C244.329575,71.3841812 244.572575,70.8171812 244.869575,70.2231812 C245.031575,69.8451812 245.193575,69.4941812 245.328575,69.0891812 C245.598575,68.3331812 245.895575,67.5501812 246.192575,66.7941812 C246.813575,65.1201812 247.461575,63.3921812 247.893575,61.7451812 L247.920575,61.6101812 Z M256.857575,64.0401812 C256.857575,63.9051812 256.857575,63.7431812 256.830575,63.5541812 C256.776575,62.7441812 256.695575,61.6371812 257.397575,61.2321812 L257.424575,61.2321812 C257.586575,61.1781812 257.748575,61.1511812 257.910575,61.1511812 C258.396575,61.1511812 258.909575,61.3401812 259.395575,61.5291812 C259.881575,61.6911812 260.313575,61.8531812 260.691575,61.8531812 L260.772575,61.8531812 L260.826575,61.9071812 C262.959575,63.1221812 265.713575,65.3361812 266.739575,68.7921812 C267.846575,72.1131812 267.360575,76.0281812 265.551575,78.5661812 C264.255575,80.3751812 262.419575,81.3471812 260.205575,81.3471812 C259.530575,81.3471812 258.801575,81.2391812 258.072575,81.0501812 L257.883575,80.9961812 L257.883575,80.8071812 C257.883575,80.5911812 257.829575,80.5641812 257.667575,80.5371812 C257.532575,80.4831812 257.235575,80.4291812 257.235575,80.1051812 L257.235575,73.3551812 C257.073575,71.6001812 257.073575,70.0611812 257.046575,68.6031812 C257.046575,67.0911812 257.046575,65.6601812 256.857575,64.0671812 L256.857575,64.0401812 Z M258.423575,63.0141812 C258.693575,68.6841812 258.720575,74.2191812 258.720575,79.5651812 C259.233575,79.6731812 259.719575,79.7541812 260.205575,79.7541812 C261.717575,79.7541812 263.040575,79.0791812 263.985575,77.8641812 C265.524575,75.8661812 266.037575,72.5451812 265.281575,69.5481812 L265.281575,69.5211812 C264.660575,66.2271812 261.987575,63.6891812 258.423575,63.0141812 Z M277.539575,60.7191812 L277.512575,60.7191812 C276.837575,60.7461812 276.108575,60.7731812 275.325575,60.7731812 C273.273575,60.8001812 271.140575,60.8271812 269.790575,61.3941812 L269.601575,61.4481812 L269.601575,61.6641812 C269.763575,64.6881812 269.628575,68.0631812 269.493575,71.6001812 C269.385575,74.8131812 269.250575,78.1341812 269.358575,81.1851812 L269.385575,81.3741812 L269.547575,81.4281812 C270.249575,81.6441812 271.086575,81.7251812 272.112575,81.7251812 C273.030575,81.7251812 273.975575,81.6441812 274.893575,81.5901812 C275.784575,81.5091812 276.594575,81.4551812 277.377575,81.4551812 C277.620575,81.4551812 277.890575,81.4821812 278.160575,81.5361812 C278.457575,81.5901812 278.781575,81.6441812 279.078575,81.6441812 C279.699575,81.6441812 280.104575,81.4011812 280.293575,80.8611812 L280.401575,80.6721812 L280.212575,80.5371812 C279.645575,80.1861812 278.808575,79.9971812 277.539575,79.9971812 C276.729575,79.9971812 275.865575,80.0781812 275.028575,80.1591812 C274.164575,80.2131812 273.273575,80.2941812 272.409575,80.2941812 C271.869575,80.2941812 271.410575,80.2671812 270.951575,80.2131812 C270.978575,78.1071812 271.113575,76.3521812 271.275575,74.3271812 C271.329575,73.6521812 271.383575,72.9231812 271.437575,72.1671812 C271.950575,72.1941812 272.463575,72.1941812 272.976575,72.1941812 C274.434575,72.1941812 275.865575,72.1401812 277.161575,72.0051812 C277.350575,71.9781812 277.539575,71.9781812 277.728575,71.9781812 C278.403575,71.9241812 279.132575,71.8971812 279.591575,71.4381812 L279.753575,71.2761812 L279.645575,71.1141812 C279.348575,70.6551812 278.916575,70.4121812 278.268575,70.4121812 C277.917575,70.4121812 277.539575,70.4931812 277.161575,70.5471812 C276.891575,70.5741812 276.621575,70.6281812 276.378575,70.6551812 C275.784575,70.6821812 275.136575,70.7091812 274.434575,70.7091812 C273.516575,70.7091812 272.490575,70.6821812 271.383575,70.5741812 C271.464575,67.7661812 271.464575,65.0931812 271.464575,62.6631812 C272.841575,62.3661812 274.731575,62.3121812 276.432575,62.2851812 C276.918575,62.2581812 277.350575,62.2581812 277.782575,62.2311812 L278.106575,62.2311812 C278.241575,62.2311812 278.376575,62.2581812 278.511575,62.2581812 C279.078575,62.2581812 279.672575,62.1771812 280.023575,61.7181812 L280.077575,61.6641812 L280.077575,61.5831812 C280.104575,61.3131812 280.050575,61.1241812 279.888575,60.9621812 C279.618575,60.6651812 279.159575,60.6381812 278.862575,60.6381812 C278.592575,60.6381812 278.322575,60.6651812 278.079575,60.6921812 C277.863575,60.6921812 277.674575,60.7191812 277.539575,60.7191812 Z M289.014575,81.4011812 C291.039575,81.1851812 293.064575,80.1051812 294.036575,78.7281812 C294.873575,77.6211812 295.197575,76.2171812 294.981575,74.7861812 C294.792575,73.4631812 294.144575,72.2751812 293.172575,71.5461812 C292.038575,70.6551812 290.418575,70.2231812 288.852575,69.7911812 C287.799575,69.4941812 286.773575,69.1971812 285.990575,68.7921812 C285.126575,68.3871812 284.586575,67.8201812 284.397575,67.1181812 C284.019575,65.4441812 285.180575,63.5811812 286.179575,63.0411812 C286.746575,62.6901812 287.772575,62.4201812 288.690575,62.4201812 C288.960575,62.4201812 289.203575,62.4471812 289.446575,62.5011812 C289.905575,62.5821812 290.229575,62.7711812 290.580575,62.9871812 C290.931575,63.2031812 291.309575,63.4461812 291.849575,63.5541812 L292.200575,63.6351812 L292.173575,63.2571812 C292.038575,61.9881812 290.823575,61.1511812 288.771575,60.9621812 C288.528575,60.9351812 288.285575,60.9351812 288.069575,60.9351812 C286.746575,60.9351812 285.558575,61.3131812 284.613575,62.0421812 C283.776575,62.6901812 283.155575,63.6081812 282.831575,64.7151812 C282.534575,65.6331812 282.507575,66.4971812 282.777575,67.2801812 C282.993575,67.9551812 283.452575,68.5491812 284.100575,69.0891812 C285.261575,70.0611812 286.908575,70.6551812 288.231575,71.1141812 C288.339575,71.1681812 288.474575,71.2221812 288.582575,71.2491812 C288.960575,71.3841812 289.311575,71.5191812 289.662575,71.6271812 C291.687575,72.3561812 293.172575,72.8421812 293.388575,74.8941812 C293.523575,76.0551812 293.145575,77.1621812 292.335575,78.0531812 C291.309575,79.1871812 289.743575,79.8621812 288.123575,79.8621812 C287.772575,79.8621812 287.421575,79.8351812 287.070575,79.7811812 L287.070575,79.7541812 C284.883575,79.4571812 283.641575,78.8361812 283.344575,77.9451812 C283.290575,77.7831812 283.263575,77.5131812 283.263575,77.2431812 C283.236575,76.8921812 283.236575,76.5411812 283.155575,76.2441812 C282.993575,75.7311812 282.669575,75.5961812 282.426575,75.5961812 C282.291575,75.5961812 282.129575,75.6501812 281.967575,75.7041812 L281.967575,75.7311812 C281.724575,75.8391812 281.427575,76.1631812 281.481575,77.0271812 C281.508575,77.5131812 281.643575,78.0531812 281.751575,78.2961812 C282.102575,79.1331812 282.993575,79.9431812 284.289575,80.5371812 C285.504575,81.1041812 286.962575,81.4281812 288.258575,81.4281812 C288.501575,81.4281812 288.771575,81.4281812 289.014575,81.4011812 Z M298.923575,72.7611812 C298.977575,73.5981812 299.058575,74.4891812 299.139575,75.4071812 C299.301575,77.2431812 299.490575,79.1601812 299.247575,80.8881812 L299.220575,81.1041812 L299.004575,81.1311812 L298.734575,81.1311812 C298.653575,81.1581812 298.572575,81.1581812 298.491575,81.1581812 C298.383575,81.1581812 298.275575,81.1581812 298.113575,81.1041812 L298.005575,81.0771812 L297.951575,81.0231812 C297.627575,80.5911812 297.654575,80.0511812 297.654575,79.5651812 L297.654575,79.1601812 C297.600575,77.9991812 297.492575,76.8111812 297.384575,75.5421812 C297.195575,73.4631812 297.006575,71.2761812 297.087575,69.1161812 C297.195575,66.9831812 297.141575,64.4451812 296.925575,61.7451812 L296.925575,61.7181812 C296.925575,61.3941812 297.141575,61.1781812 297.492575,61.1781812 C297.762575,61.1781812 298.059575,61.3131812 298.221575,61.3671812 C298.248575,61.3671812 298.248575,61.3671812 298.275575,61.3941812 L298.383575,61.4211812 L298.437575,61.5561812 C298.923575,63.2841812 298.896575,65.6061812 298.842575,67.8201812 C298.842575,68.7651812 298.815575,69.7371812 298.842575,70.6281812 C300.867575,69.1161812 302.865575,67.3341812 305.079575,65.3361812 C305.187575,65.2551812 305.295575,65.1201812 305.430575,64.9581812 C305.835575,64.4991812 306.321575,63.9321812 306.969575,63.9321812 C307.266575,63.9321812 307.536575,64.0671812 307.779575,64.2831812 L307.887575,64.3641812 L307.887575,64.4721812 C307.914575,65.0391812 307.455575,65.3901812 307.077575,65.6601812 C306.969575,65.7141812 306.888575,65.7681812 306.807575,65.8491812 C306.267575,66.2811812 305.754575,66.7671812 305.214575,67.3071812 C304.647575,67.8471812 304.080575,68.4141812 303.459575,68.9001812 C303.675575,69.4131812 303.891575,69.9801812 304.107575,70.5471812 C304.728575,72.2211812 305.376575,73.9761812 306.213575,75.5151812 C306.672575,76.3521812 307.185575,77.1891812 307.671575,78.0261812 C308.184575,78.8631812 308.697575,79.7541812 309.021575,80.7801812 L309.075575,80.9961812 L308.859575,81.1041812 C308.670575,81.1851812 308.481575,81.2121812 308.292575,81.2121812 C307.293575,81.2121812 306.780575,80.1051812 306.402575,79.3761812 C306.348575,79.2411812 306.294575,79.1331812 306.240575,79.0251812 C304.593575,76.1901812 303.135575,73.0311812 302.109575,70.0881812 C301.434575,70.5201812 300.867575,71.0331812 300.273575,71.6001812 C299.868575,71.9781812 299.409575,72.3831812 298.923575,72.7611812 Z M314.583575,62.8791812 C314.313575,62.7981812 313.962575,62.7711812 313.476575,62.7711812 C313.125575,62.7711812 312.720575,62.7711812 312.342575,62.7981812 C311.937575,62.8251812 311.532575,62.8521812 311.154575,62.8521812 C310.182575,62.8521812 308.994575,62.7171812 308.751575,61.6101812 L308.670575,61.3131812 L308.994575,61.2861812 C309.777575,61.2051812 310.587575,61.1511812 311.451575,61.1511812 C312.396575,61.1511812 313.341575,61.2051812 314.340575,61.2591812 C315.123575,61.3131812 315.933575,61.3401812 316.824575,61.3671812 L317.175575,61.3671812 C317.445575,61.3671812 317.715575,61.3671812 317.985575,61.3401812 C318.255575,61.3401812 318.525575,61.3131812 318.795575,61.3131812 C319.551575,61.3131812 320.442575,61.4211812 320.820575,62.2581812 L320.874575,62.3931812 L320.793575,62.5011812 C320.550575,62.9331812 320.091575,62.9871812 319.740575,62.9871812 C319.578575,62.9871812 319.416575,62.9601812 319.254575,62.9601812 C319.119575,62.9601812 318.957575,62.9331812 318.849575,62.9331812 C318.498575,62.9331812 318.174575,62.9601812 317.877575,62.9601812 C317.580575,62.9601812 317.256575,62.9871812 316.959575,62.9871812 C316.716575,62.9871812 316.473575,62.9601812 316.257575,62.9601812 C316.473575,66.6591812 316.365575,71.6001812 316.284575,75.9741812 C316.257575,77.0001812 316.257575,77.9991812 316.230575,78.9441812 L316.230575,79.5111812 C316.284575,80.0241812 316.311575,80.5371812 316.041575,81.0231812 L315.987575,81.1041812 L315.879575,81.1311812 C315.717575,81.1851812 315.582575,81.1851812 315.447575,81.1851812 C315.231575,81.1851812 315.042575,81.1311812 314.907575,80.9691812 C314.610575,80.6721812 314.637575,80.1861812 314.637575,79.7811812 C314.664575,79.6731812 314.664575,79.5921812 314.664575,79.5111812 C314.880575,73.3011812 314.799575,68.3331812 314.583575,62.8791812 Z M328.272575,81.4821812 C326.922575,81.4821812 325.572575,80.9961812 324.384575,80.0781812 C323.304575,79.2411812 322.413575,78.1071812 321.873575,76.8651812 C321.117575,75.0291812 320.766575,72.9231812 320.847575,70.7361812 C320.928575,68.5491812 321.441575,66.4971812 322.305575,64.8231812 C323.439575,62.6901812 325.059575,61.3131812 327.030575,60.8811812 C327.084575,60.8811812 327.111575,60.8541812 327.165575,60.8541812 C327.192575,60.8541812 327.219575,60.8811812 327.246575,60.8811812 C327.462575,60.8541812 327.786575,60.8271812 327.948575,60.8271812 C328.542575,60.8271812 329.352575,60.8811812 329.811575,61.0431812 C330.810575,61.3131812 331.944575,61.9341812 332.943575,62.8251812 C333.942575,63.6891812 334.752575,64.6881812 335.238575,65.6871812 C335.697575,66.6321812 335.940575,67.6851812 335.940575,68.9541812 C335.940575,70.0611812 335.778575,71.3031812 335.427575,72.7611812 C334.509575,76.8111812 333.240575,79.3491812 331.566575,80.4831812 C330.513575,81.1311812 329.406575,81.4821812 328.272575,81.4821812 Z M324.870575,78.5121812 C325.599575,79.3491812 326.355575,79.9161812 326.922575,80.0241812 C327.111575,80.0511812 327.273575,80.0511812 327.489575,80.0511812 C328.839575,80.0511812 330.378575,79.3221812 330.972575,78.7821812 C332.538575,77.2971812 333.240575,74.8131812 333.699575,72.5451812 C333.996575,71.1681812 334.374575,69.4401812 334.293575,68.2521812 C334.158575,66.3351812 332.727575,64.7961812 331.971575,63.9591812 C330.891575,62.8521812 329.838575,62.3931812 328.326575,62.3931812 C328.002575,62.3931812 327.624575,62.4201812 327.246575,62.4741812 C325.815575,62.9331812 324.627575,64.0941812 323.790575,65.7951812 C322.359575,68.7651812 322.197575,72.8421812 323.385575,76.1901812 C323.628575,76.8651812 324.222575,77.7831812 324.870575,78.5121812 Z M339.018575,81.4011812 C338.910575,81.3741812 338.829575,81.3741812 338.748575,81.3741812 L338.505575,81.3471812 L338.505575,81.1041812 C338.127575,76.5951812 338.316575,71.8431812 338.478575,67.2261812 C338.559575,65.4981812 338.613575,63.6891812 338.667575,61.9611812 L338.667575,61.8531812 L338.721575,61.7991812 C339.288575,61.0701812 340.719575,60.9891812 342.069575,60.9891812 C344.769575,60.9891812 346.740575,62.8251812 347.496575,64.6341812 C347.928575,65.6871812 348.036575,67.2531812 347.739575,68.7921812 C347.442575,70.4121812 346.821575,71.7351812 346.011575,72.4371812 C345.120575,73.1931812 343.554575,73.6791812 342.123575,73.6791812 C341.340575,73.6791812 340.638575,73.5441812 340.017575,73.2471812 C339.990575,73.9221812 340.017575,74.6511812 340.017575,75.3261812 C340.044575,75.8661812 340.044575,76.4061812 340.044575,76.8381812 C340.017575,77.3511812 340.044575,77.8911812 340.071575,78.4041812 C340.152575,79.3761812 340.206575,80.3481812 339.855575,81.2661812 L339.801575,81.4281812 L339.639575,81.4551812 L339.477575,81.4551812 C339.288575,81.4551812 339.153575,81.4281812 339.018575,81.4011812 Z M340.368575,62.6091812 C340.395575,64.7421812 340.287575,66.7401812 340.152575,68.6841812 C340.071575,69.7641812 340.017575,70.7901812 339.963575,71.8431812 C340.935575,72.1131812 341.718575,72.2211812 342.420575,72.2211812 C343.554575,72.2211812 344.445575,71.8701812 345.120575,71.1681812 C345.957575,70.3041812 346.389575,68.6301812 346.200575,66.7941812 C346.038575,65.0661812 345.363575,63.6351812 344.472575,63.0411812 C343.797575,62.6091812 343.014575,62.5551812 342.231575,62.5551812 C341.880575,62.5551812 341.529575,62.5551812 341.124575,62.5821812 C340.881575,62.5821812 340.638575,62.6091812 340.368575,62.6091812 Z M359.889575,72.6531812 C359.592575,73.5711812 359.295575,74.6241812 358.998575,75.7581812 C358.647575,77.0271812 358.296575,78.3231812 357.891575,79.5111812 C357.864575,79.5651812 357.837575,79.6461812 357.810575,79.7541812 C357.648575,80.2941812 357.405575,81.1041812 356.703575,81.1041812 C356.541575,81.1041812 356.325575,81.0501812 356.136575,80.9151812 L356.001575,80.8341812 L356.001575,80.6991812 C355.974575,80.1051812 356.217575,79.5921812 356.433575,79.1061812 C356.541575,78.8361812 356.649575,78.5661812 356.730575,78.2961812 C357.243575,76.4871812 357.729575,74.6241812 358.161575,72.8151812 C358.944575,69.7911812 359.727575,66.6591812 360.807575,63.6081812 C360.969575,63.1221812 361.401575,61.9071812 361.779575,61.3401812 L361.806575,61.2861812 L361.833575,61.2591812 C362.022575,61.1241812 362.211575,61.0701812 362.373575,61.0701812 C363.237575,61.0701812 363.561575,62.4741812 363.777575,63.4191812 L363.777575,63.4731812 C364.101575,64.8771812 364.344575,66.5241812 364.560575,68.1171812 C364.695575,69.1701812 364.830575,70.1691812 364.965575,70.9791812 C364.992575,71.0331812 365.046575,71.0601812 365.154575,71.1411812 C365.262575,71.1951812 365.424575,71.3031812 365.532575,71.4651812 L365.559575,71.5191812 L365.559575,71.5731812 C365.586575,71.9241812 365.397575,72.0861812 365.289575,72.1671812 C365.262575,72.1941812 365.235575,72.2211812 365.208575,72.2211812 C365.208575,72.2211812 365.208575,72.2481812 365.235575,72.2751812 C365.721575,74.2731812 366.342575,76.4871812 367.125575,78.8631812 C367.152575,78.9711812 367.206575,79.0791812 367.233575,79.2141812 C367.449575,79.7811812 367.692575,80.4291812 367.530575,81.0771812 L367.503575,81.1851812 L367.395575,81.2661812 C367.233575,81.3201812 367.071575,81.3741812 366.909575,81.3741812 C366.747575,81.3741812 366.612575,81.3471812 366.477575,81.3201812 C366.396575,81.2931812 366.288575,81.2931812 366.207575,81.2931812 L366.045575,81.2661812 L365.991575,81.1041812 C364.965575,77.9451812 364.155575,75.0831812 363.480575,72.4101812 C363.210575,72.3831812 362.913575,72.3831812 362.616575,72.3831812 C361.725575,72.3831812 360.753575,72.4911812 359.889575,72.6531812 Z M360.294575,71.0601812 C360.537575,71.0601812 360.780575,71.0331812 361.023575,71.0061812 C361.698575,70.9791812 362.400575,70.9251812 363.129575,70.9251812 C362.886575,68.8191812 362.616575,66.6591812 362.184575,64.6881812 C361.698575,66.0651812 361.293575,67.5501812 360.888575,68.9811812 C360.699575,69.6561812 360.510575,70.3581812 360.294575,71.0601812 Z M369.744575,81.4011812 C369.636575,81.3741812 369.555575,81.3741812 369.474575,81.3741812 L369.231575,81.3471812 L369.231575,81.1041812 C368.853575,76.5951812 369.042575,71.8431812 369.204575,67.2261812 C369.285575,65.4981812 369.339575,63.6891812 369.393575,61.9611812 L369.393575,61.8531812 L369.447575,61.7991812 C370.014575,61.0701812 371.445575,60.9891812 372.795575,60.9891812 C375.495575,60.9891812 377.466575,62.8251812 378.222575,64.6341812 C378.654575,65.6871812 378.762575,67.2531812 378.465575,68.7921812 C378.168575,70.4121812 377.547575,71.7351812 376.737575,72.4371812 C375.846575,73.1931812 374.280575,73.6791812 372.849575,73.6791812 C372.066575,73.6791812 371.364575,73.5441812 370.743575,73.2471812 C370.716575,73.9221812 370.743575,74.6511812 370.743575,75.3261812 C370.770575,75.8661812 370.770575,76.4061812 370.770575,76.8381812 C370.743575,77.3511812 370.770575,77.8911812 370.797575,78.4041812 C370.878575,79.3761812 370.932575,80.3481812 370.581575,81.2661812 L370.527575,81.4281812 L370.365575,81.4551812 L370.203575,81.4551812 C370.014575,81.4551812 369.879575,81.4281812 369.744575,81.4011812 Z M371.094575,62.6091812 C371.121575,64.7421812 371.013575,66.7401812 370.878575,68.6841812 C370.797575,69.7641812 370.743575,70.7901812 370.689575,71.8431812 C371.661575,72.1131812 372.444575,72.2211812 373.146575,72.2211812 C374.280575,72.2211812 375.171575,71.8701812 375.846575,71.1681812 C376.683575,70.3041812 377.115575,68.6301812 376.926575,66.7941812 C376.764575,65.0661812 376.089575,63.6351812 375.198575,63.0411812 C374.523575,62.6091812 373.740575,62.5551812 372.957575,62.5551812 C372.606575,62.5551812 372.255575,62.5551812 371.850575,62.5821812 C371.607575,62.5821812 371.364575,62.6091812 371.094575,62.6091812 Z M381.570575,81.4011812 C381.462575,81.3741812 381.381575,81.3741812 381.300575,81.3741812 L381.057575,81.3471812 L381.057575,81.1041812 C380.679575,76.5951812 380.868575,71.8431812 381.030575,67.2261812 C381.111575,65.4981812 381.165575,63.6891812 381.219575,61.9611812 L381.219575,61.8531812 L381.273575,61.7991812 C381.840575,61.0701812 383.271575,60.9891812 384.621575,60.9891812 C387.321575,60.9891812 389.292575,62.8251812 390.048575,64.6341812 C390.480575,65.6871812 390.588575,67.2531812 390.291575,68.7921812 C389.994575,70.4121812 389.373575,71.7351812 388.563575,72.4371812 C387.672575,73.1931812 386.106575,73.6791812 384.675575,73.6791812 C383.892575,73.6791812 383.190575,73.5441812 382.569575,73.2471812 C382.542575,73.9221812 382.569575,74.6511812 382.569575,75.3261812 C382.596575,75.8661812 382.596575,76.4061812 382.596575,76.8381812 C382.569575,77.3511812 382.596575,77.8911812 382.623575,78.4041812 C382.704575,79.3761812 382.758575,80.3481812 382.407575,81.2661812 L382.353575,81.4281812 L382.191575,81.4551812 L382.029575,81.4551812 C381.840575,81.4551812 381.705575,81.4281812 381.570575,81.4011812 Z M382.920575,62.6091812 C382.947575,64.7421812 382.839575,66.7401812 382.704575,68.6841812 C382.623575,69.7641812 382.569575,70.7901812 382.515575,71.8431812 C383.487575,72.1131812 384.270575,72.2211812 384.972575,72.2211812 C386.106575,72.2211812 386.997575,71.8701812 387.672575,71.1681812 C388.509575,70.3041812 388.941575,68.6301812 388.752575,66.7941812 C388.590575,65.0661812 387.915575,63.6351812 387.024575,63.0411812 C386.349575,62.6091812 385.566575,62.5551812 384.783575,62.5551812 C384.432575,62.5551812 384.081575,62.5551812 383.676575,62.5821812 C383.433575,62.5821812 383.190575,62.6091812 382.920575,62.6091812 Z M120.318575,95.6331853 L120.335575,95.6161853 C120.369575,95.5141853 120.522575,95.3271853 120.675575,95.1571853 C120.981575,94.7831853 121.304575,94.3921853 121.270575,94.0861853 C121.219575,93.7801853 120.879575,93.6101853 120.573575,93.6101853 C120.420575,93.6101853 120.301575,93.6441853 120.216575,93.7291853 C119.842575,94.0011853 119.519575,94.4431853 119.247575,95.0381853 C119.009575,95.5821853 118.805575,96.2451853 118.652575,96.9931853 C118.380575,98.4211853 118.329575,100.070185 118.516575,101.498185 C118.635575,102.450185 118.788575,103.130185 118.975575,103.708185 C119.196575,104.371185 119.485575,104.915185 119.876575,105.425185 C119.893575,105.442185 119.927575,105.476185 119.944575,105.510185 C120.182575,105.850185 120.505575,106.326185 120.981575,106.326185 C121.100575,106.326185 121.219575,106.309185 121.338575,106.241185 L121.406575,106.190185 L121.423575,106.122185 C121.525575,105.561185 121.253575,105.323185 121.032575,105.136185 C120.930575,105.051185 120.845575,104.966185 120.777575,104.864185 C120.267575,104.167185 119.876575,102.943185 119.689575,101.447185 C119.519575,100.019185 119.553575,98.5061853 119.774575,97.2991853 C119.825575,97.0101853 120.063575,96.1091853 120.318575,95.6331853 Z M121.950575,94.4601853 C122.052575,94.8171853 122.137575,95.1401853 122.205575,95.4291853 C122.936575,98.6761853 123.922575,101.532185 124.823575,104.422185 C124.874575,104.626185 124.925575,104.830185 125.010575,104.983185 C125.129575,105.187185 125.316575,105.272185 125.554575,105.272185 C125.639575,105.272185 125.741575,105.204185 125.843575,105.170185 C126.404575,104.303185 126.846575,103.453185 127.356575,102.569185 C127.747575,101.872185 128.036575,101.039185 128.444575,100.376185 C128.665575,101.192185 128.954575,102.042185 129.328575,102.892185 C129.362575,102.943185 129.379575,103.011185 129.413575,103.079185 C129.566575,103.419185 129.787575,103.946185 130.042575,104.388185 C130.399575,104.966185 130.722575,105.255185 131.028575,105.255185 C131.351575,105.255185 131.521575,104.966185 131.708575,104.371185 C132.082575,103.198185 132.218575,102.093185 132.626575,100.920185 C133.221575,98.1661853 134.122575,95.6331853 134.938575,93.0321853 L134.972575,92.9131853 L134.853575,92.8451853 C134.836575,92.8281853 134.819575,92.8111853 134.785575,92.7941853 C134.649575,92.6921853 134.479575,92.5901853 134.275575,92.5901853 C134.207575,92.5901853 134.156575,92.5901853 134.088575,92.6241853 L134.037575,92.6411853 L134.003575,92.6921853 C133.493575,93.5421853 133.357575,94.4771853 133.068575,95.3441853 C132.320575,97.5371853 131.759575,99.7301853 131.147575,102.042185 C131.045575,102.501185 130.909575,102.960185 130.790575,103.436185 C130.450575,102.909185 129.481575,100.563185 129.481575,100.019185 C129.260575,99.2201853 129.090575,98.6421853 128.784575,98.5231853 C128.699575,98.4721853 128.597575,98.4551853 128.512575,98.4551853 C127.883575,98.4551853 127.713575,99.3731853 127.492575,99.8321853 C126.846575,101.158185 126.319575,102.314185 125.639575,103.385185 C124.891575,101.362185 124.160575,98.7951853 123.395575,95.5651853 L123.395575,95.5481853 C123.361575,95.3951853 123.276575,95.1571853 123.225575,94.8851853 C123.089575,94.1371853 123.072575,93.3891853 122.613575,92.7941853 C122.460575,92.6241853 122.273575,92.5221853 122.069575,92.5221853 C121.933575,92.5221853 121.814575,92.5561853 121.678575,92.6241853 L121.576575,92.6751853 L121.576575,92.7941853 C121.610575,93.1681853 121.797575,93.8311853 121.950575,94.4601853 Z M140.871575,92.2841853 L140.854575,92.2841853 C140.429575,92.3011853 139.970575,92.3181853 139.477575,92.3181853 C138.185575,92.3351853 136.842575,92.3521853 135.992575,92.7091853 L135.873575,92.7431853 L135.873575,92.8791853 C135.975575,94.7831853 135.890575,96.9081853 135.805575,99.1351853 C135.737575,101.158185 135.652575,103.249185 135.720575,105.170185 L135.737575,105.289185 L135.839575,105.323185 C136.281575,105.459185 136.808575,105.510185 137.454575,105.510185 C138.032575,105.510185 138.627575,105.459185 139.205575,105.425185 C139.766575,105.374185 140.276575,105.340185 140.769575,105.340185 C140.922575,105.340185 141.092575,105.357185 141.262575,105.391185 C141.449575,105.425185 141.653575,105.459185 141.840575,105.459185 C142.231575,105.459185 142.486575,105.306185 142.605575,104.966185 L142.673575,104.847185 L142.554575,104.762185 C142.197575,104.541185 141.670575,104.422185 140.871575,104.422185 C140.361575,104.422185 139.817575,104.473185 139.290575,104.524185 C138.746575,104.558185 138.185575,104.609185 137.641575,104.609185 C137.301575,104.609185 137.012575,104.592185 136.723575,104.558185 C136.740575,103.232185 136.825575,102.127185 136.927575,100.852185 C136.961575,100.427185 136.995575,99.9681853 137.029575,99.4921853 C137.352575,99.5091853 137.675575,99.5091853 137.998575,99.5091853 C138.916575,99.5091853 139.817575,99.4751853 140.633575,99.3901853 C140.752575,99.3731853 140.871575,99.3731853 140.990575,99.3731853 C141.415575,99.3391853 141.874575,99.3221853 142.163575,99.0331853 L142.265575,98.9311853 L142.197575,98.8291853 C142.010575,98.5401853 141.738575,98.3871853 141.330575,98.3871853 C141.109575,98.3871853 140.871575,98.4381853 140.633575,98.4721853 C140.463575,98.4891853 140.293575,98.5231853 140.140575,98.5401853 C139.766575,98.5571853 139.358575,98.5741853 138.916575,98.5741853 C138.338575,98.5741853 137.692575,98.5571853 136.995575,98.4891853 C137.046575,96.7211853 137.046575,95.0381853 137.046575,93.5081853 C137.913575,93.3211853 139.103575,93.2871853 140.174575,93.2701853 C140.480575,93.2531853 140.752575,93.2531853 141.024575,93.2361853 L141.228575,93.2361853 C141.313575,93.2361853 141.398575,93.2531853 141.483575,93.2531853 C141.840575,93.2531853 142.214575,93.2021853 142.435575,92.9131853 L142.469575,92.8791853 L142.469575,92.8281853 C142.486575,92.6581853 142.452575,92.5391853 142.350575,92.4371853 C142.180575,92.2501853 141.891575,92.2331853 141.704575,92.2331853 C141.534575,92.2331853 141.364575,92.2501853 141.211575,92.2671853 C141.075575,92.2671853 140.956575,92.2841853 140.871575,92.2841853 Z M151.326575,93.6441853 C151.462575,97.0781853 151.513575,100.206185 151.377575,104.116185 C151.377575,104.167185 151.377575,104.218185 151.360575,104.286185 C151.360575,104.541185 151.343575,104.847185 151.530575,105.034185 C151.615575,105.136185 151.734575,105.170185 151.870575,105.170185 C151.955575,105.170185 152.040575,105.170185 152.142575,105.136185 L152.210575,105.119185 L152.244575,105.068185 C152.414575,104.762185 152.397575,104.439185 152.363575,104.116185 L152.363575,103.759185 C152.380575,103.164185 152.380575,102.535185 152.397575,101.889185 C152.448575,99.1351853 152.516575,96.0241853 152.380575,93.6951853 C152.516575,93.6951853 152.669575,93.7121853 152.822575,93.7121853 C153.009575,93.7121853 153.213575,93.6951853 153.400575,93.6951853 C153.587575,93.6951853 153.791575,93.6781853 154.012575,93.6781853 C154.080575,93.6781853 154.182575,93.6951853 154.267575,93.6951853 C154.369575,93.6951853 154.471575,93.7121853 154.573575,93.7121853 C154.794575,93.7121853 155.083575,93.6781853 155.236575,93.4061853 L155.287575,93.3381853 L155.253575,93.2531853 C155.015575,92.7261853 154.454575,92.6581853 153.978575,92.6581853 C153.808575,92.6581853 153.638575,92.6751853 153.468575,92.6751853 C153.298575,92.6921853 153.128575,92.6921853 152.958575,92.6921853 L152.737575,92.6921853 C152.176575,92.6751853 151.666575,92.6581853 151.173575,92.6241853 C150.544575,92.5901853 149.949575,92.5561853 149.354575,92.5561853 C148.810575,92.5561853 148.300575,92.5901853 147.807575,92.6411853 L147.603575,92.6581853 L147.654575,92.8451853 C147.807575,93.5421853 148.555575,93.6271853 149.167575,93.6271853 C149.405575,93.6271853 149.660575,93.6101853 149.915575,93.5931853 C150.153575,93.5761853 150.408575,93.5761853 150.629575,93.5761853 C150.935575,93.5761853 151.156575,93.5931853 151.326575,93.6441853 Z M157.531575,98.6251853 C157.973575,98.5571853 158.415575,98.4551853 158.840575,98.3701853 C159.826575,98.1661853 160.829575,97.9451853 161.917575,97.9451853 C162.121575,97.9451853 162.325575,97.9621853 162.512575,97.9791853 C162.410575,99.8661853 162.495575,102.195185 162.784575,104.541185 L162.801575,104.677185 L162.954575,104.677185 C163.039575,104.677185 163.090575,104.694185 163.141575,104.694185 C163.175575,104.694185 163.226575,104.711185 163.260575,104.711185 C163.328575,104.711185 163.379575,104.694185 163.464575,104.677185 L163.583575,104.660185 L163.600575,104.541185 C163.719575,103.827185 163.634575,102.807185 163.549575,101.736185 C163.498575,101.022185 163.447575,100.291185 163.447575,99.6451853 C163.447575,98.7781853 163.515575,97.8941853 163.566575,96.9591853 C163.634575,96.0071853 163.702575,95.0381853 163.702575,94.0351853 L163.702575,93.7971853 C163.719575,93.3041853 163.736575,92.7601853 163.481575,92.5051853 C163.396575,92.4201853 163.260575,92.3691853 163.124575,92.3861853 L163.090575,92.3861853 C162.903575,92.4541853 162.869575,92.5051853 162.818575,92.6411853 C162.801575,92.6411853 162.801575,92.6581853 162.801575,92.6751853 L162.784575,92.6921853 C162.631575,93.1681853 162.631575,93.9501853 162.648575,94.7831853 C162.665575,95.5651853 162.665575,96.3811853 162.529575,96.9081853 C160.999575,96.9081853 159.622575,97.2141853 158.279575,97.5031853 C158.024575,97.5541853 157.769575,97.6051853 157.531575,97.6561853 C157.497575,96.9421853 157.514575,96.2621853 157.531575,95.6161853 C157.565575,94.6811853 157.582575,93.8141853 157.480575,92.9641853 L157.463575,92.8621853 L157.395575,92.8281853 C157.174575,92.7261853 156.953575,92.6921853 156.800575,92.6751853 L156.715575,92.6751853 L156.664575,92.7261853 C156.460575,92.9301853 156.477575,93.2361853 156.511575,93.5081853 L156.511575,93.8481853 C156.290575,98.1831853 156.426575,101.940185 156.902575,105.034185 L156.902575,105.051185 L156.919575,105.068185 C156.936575,105.153185 157.038575,105.289185 157.344575,105.289185 C157.463575,105.289185 157.650575,105.255185 157.752575,105.187185 L157.820575,105.136185 L157.820575,105.051185 C157.820575,104.048185 157.752575,103.011185 157.684575,102.008185 C157.599575,100.886185 157.514575,99.7301853 157.531575,98.6251853 Z M165.487575,98.4891853 C165.521575,99.2541853 165.521575,100.036185 165.538575,100.801185 C165.555575,101.940185 165.555575,103.130185 165.606575,104.269185 C165.606575,104.320185 165.606575,104.388185 165.589575,104.456185 C165.555575,104.660185 165.521575,104.966185 165.776575,105.136185 C165.827575,105.204185 165.912575,105.255185 166.065575,105.255185 C166.218575,105.255185 166.371575,105.204185 166.456575,105.170185 L166.541575,105.136185 L166.558575,105.068185 C166.762575,104.405185 166.694575,103.674185 166.626575,102.892185 C166.626575,102.756185 166.609575,102.620185 166.609575,102.467185 C166.507575,99.9511853 166.592575,97.5371853 166.677575,95.1911853 C166.711575,94.4601853 166.728575,93.7121853 166.762575,92.9641853 L166.762575,92.9131853 L166.728575,92.8621853 C166.609575,92.7091853 166.354575,92.6241853 166.150575,92.6241853 C165.929575,92.6241853 165.759575,92.7091853 165.674575,92.8621853 L165.640575,92.9301853 C165.453575,94.3241853 165.470575,95.8201853 165.487575,97.2651853 L165.487575,98.4891853 Z M174.837575,92.5391853 L174.837575,92.6411853 C174.837575,93.9331853 174.939575,95.4971853 175.024575,97.1631853 C175.126575,98.7271853 175.347575,101.039185 175.364575,102.399185 C174.140575,99.1181853 172.678575,96.7891853 171.080575,93.9501853 C170.757575,93.4911853 170.213575,92.7431853 169.482575,92.7431853 C169.397575,92.7431853 169.312575,92.7601853 169.210575,92.7771853 L169.091575,92.8111853 L169.091575,92.9471853 C169.074575,93.5081853 169.040575,94.0691853 169.023575,94.6641853 C168.972575,96.2451853 168.887575,97.8601853 168.785575,99.4921853 C168.666575,101.515185 168.581575,103.368185 168.530575,105.017185 L168.530575,105.136185 L168.632575,105.187185 C168.717575,105.221185 168.819575,105.238185 168.921575,105.238185 C169.125575,105.238185 169.329575,105.187185 169.465575,105.136185 L169.584575,105.102185 L169.584575,104.983185 C169.584575,104.847185 169.652575,104.354185 169.669575,103.691185 C169.754575,101.260185 170.043575,96.2791853 170.162575,94.4941853 C171.046575,95.8201853 172.015575,97.6731853 173.069575,99.5941853 C173.528575,100.393185 173.919575,101.396185 174.293575,102.382185 C174.565575,103.062185 174.820575,103.708185 175.092575,104.286185 L175.092575,104.320185 C175.262575,104.677185 175.500575,105.238185 175.993575,105.238185 C176.129575,105.238185 176.265575,105.187185 176.418575,105.102185 L176.520575,105.051185 L176.503575,104.932185 C176.282575,102.943185 176.248575,100.563185 176.129575,98.2851853 C176.027575,96.3641853 175.976575,94.3921853 175.857575,92.7091853 L175.840575,92.6411853 L175.806575,92.6071853 C175.653575,92.4541853 175.483575,92.3861853 175.296575,92.3861853 C175.177575,92.3861853 175.041575,92.4201853 174.922575,92.4881853 L174.837575,92.5391853 Z M179.019575,99.8661853 C179.325575,99.6281853 179.614575,99.3731853 179.869575,99.1351853 C180.243575,98.7781853 180.600575,98.4551853 181.025575,98.1831853 C181.671575,100.036185 182.589575,102.025185 183.626575,103.810185 C183.660575,103.878185 183.694575,103.946185 183.728575,104.031185 C183.966575,104.490185 184.289575,105.187185 184.918575,105.187185 C185.037575,105.187185 185.156575,105.170185 185.275575,105.119185 L185.411575,105.051185 L185.377575,104.915185 C185.173575,104.269185 184.850575,103.708185 184.527575,103.181185 C184.221575,102.654185 183.898575,102.127185 183.609575,101.600185 C183.082575,100.631185 182.674575,99.5261853 182.283575,98.4721853 C182.147575,98.1151853 182.011575,97.7581853 181.875575,97.4351853 C182.266575,97.1291853 182.623575,96.7721853 182.980575,96.4321853 C183.320575,96.0921853 183.643575,95.7861853 183.983575,95.5141853 C184.034575,95.4631853 184.085575,95.4291853 184.153575,95.3951853 C184.391575,95.2251853 184.680575,95.0041853 184.663575,94.6471853 L184.663575,94.5791853 L184.595575,94.5281853 C184.442575,94.3921853 184.272575,94.3071853 184.085575,94.3071853 C183.677575,94.3071853 183.371575,94.6641853 183.116575,94.9531853 C183.031575,95.0551853 182.963575,95.1401853 182.895575,95.1911853 C181.501575,96.4491853 180.243575,97.5711853 178.968575,98.5231853 C178.951575,97.9621853 178.968575,97.3501853 178.968575,96.7551853 C179.002575,95.3611853 179.019575,93.8991853 178.713575,92.8111853 L178.679575,92.7261853 L178.611575,92.7091853 C178.594575,92.6921853 178.594575,92.6921853 178.577575,92.6921853 C178.475575,92.6581853 178.288575,92.5731853 178.118575,92.5731853 C177.897575,92.5731853 177.761575,92.7091853 177.761575,92.9131853 L177.761575,92.9301853 C177.897575,94.6301853 177.931575,96.2281853 177.863575,97.5711853 C177.812575,98.9311853 177.931575,100.308185 178.050575,101.617185 C178.118575,102.416185 178.186575,103.164185 178.220575,103.895185 L178.220575,104.150185 C178.220575,104.456185 178.203575,104.796185 178.407575,105.068185 L178.441575,105.102185 L178.509575,105.119185 C178.611575,105.153185 178.679575,105.153185 178.747575,105.153185 C178.798575,105.153185 178.849575,105.153185 178.900575,105.136185 L179.070575,105.136185 L179.206575,105.119185 L179.223575,104.983185 C179.376575,103.895185 179.257575,102.688185 179.155575,101.532185 C179.104575,100.954185 179.053575,100.393185 179.019575,99.8661853 Z M197.447575,92.8451853 L197.396575,92.7771853 C197.243575,92.5901853 196.971575,92.3861853 196.699575,92.3861853 C196.631575,92.3861853 196.563575,92.3861853 196.512575,92.4031853 L196.444575,92.4371853 L196.427575,92.4881853 C195.917575,93.3551853 195.577575,94.4091853 195.254575,95.4291853 C194.999575,96.2621853 194.744575,97.1121853 194.370575,97.8601853 C194.217575,97.6051853 194.047575,97.3501853 193.894575,97.1121853 C193.129575,95.9731853 192.364575,94.7831853 191.531575,93.7291853 C191.480575,93.6781853 191.429575,93.6101853 191.378575,93.5421853 C191.089575,93.1511853 190.715575,92.6581853 190.154575,92.6581853 L190.018575,92.6581853 L189.865575,92.6751853 L189.865575,92.8451853 C189.916575,93.3551853 190.290575,93.7631853 190.630575,94.1201853 C190.732575,94.2391853 190.817575,94.3411853 190.902575,94.4431853 C191.259575,94.8851853 191.616575,95.3611853 191.990575,95.9731853 C192.126575,96.1941853 192.279575,96.4491853 192.432575,96.7041853 C192.772575,97.2821853 193.146575,97.9281853 193.503575,98.4041853 C193.571575,98.4721853 193.639575,98.5571853 193.707575,98.6421853 C193.843575,98.8121853 194.013575,99.0161853 194.047575,99.1351853 C194.149575,99.6281853 194.081575,100.257185 194.013575,100.869185 C193.979575,101.124185 193.945575,101.362185 193.945575,101.600185 C193.894575,102.178185 193.894575,102.790185 193.894575,103.317185 C193.894575,103.589185 193.894575,103.827185 193.877575,104.065185 L193.877575,104.337185 C193.843575,104.592185 193.826575,104.898185 194.013575,105.102185 C194.132575,105.238185 194.302575,105.306185 194.557575,105.306185 L194.659575,105.306185 L194.710575,105.187185 C194.965575,104.558185 194.965575,103.827185 194.965575,103.130185 C194.965575,102.858185 194.965575,102.586185 194.982575,102.314185 C194.999575,101.991185 194.999575,101.668185 195.016575,101.345185 C195.016575,100.699185 195.033575,100.053185 195.135575,99.4241853 C195.186575,98.9991853 195.339575,98.6421853 195.526575,98.2681853 C195.628575,98.0301853 195.730575,97.8091853 195.815575,97.5541853 C195.985575,97.0781853 196.172575,96.5851853 196.359575,96.1091853 C196.750575,95.0551853 197.158575,93.9671853 197.430575,92.9301853 L197.447575,92.8451853 Z M202.649575,105.357185 C201.799575,105.357185 200.949575,105.051185 200.201575,104.473185 C199.521575,103.946185 198.960575,103.232185 198.620575,102.450185 C198.144575,101.294185 197.923575,99.9681853 197.974575,98.5911853 C198.025575,97.2141853 198.348575,95.9221853 198.892575,94.8681853 C199.606575,93.5251853 200.626575,92.6581853 201.867575,92.3861853 C201.901575,92.3861853 201.918575,92.3691853 201.952575,92.3691853 C201.969575,92.3691853 201.986575,92.3861853 202.003575,92.3861853 C202.139575,92.3691853 202.343575,92.3521853 202.445575,92.3521853 C202.819575,92.3521853 203.329575,92.3861853 203.618575,92.4881853 C204.247575,92.6581853 204.961575,93.0491853 205.590575,93.6101853 C206.219575,94.1541853 206.729575,94.7831853 207.035575,95.4121853 C207.324575,96.0071853 207.477575,96.6701853 207.477575,97.4691853 C207.477575,98.1661853 207.375575,98.9481853 207.154575,99.8661853 C206.576575,102.416185 205.777575,104.014185 204.723575,104.728185 C204.060575,105.136185 203.363575,105.357185 202.649575,105.357185 Z M200.507575,103.487185 C200.966575,104.014185 201.442575,104.371185 201.799575,104.439185 C201.918575,104.456185 202.020575,104.456185 202.156575,104.456185 C203.006575,104.456185 203.975575,103.997185 204.349575,103.657185 C205.335575,102.722185 205.777575,101.158185 206.066575,99.7301853 C206.253575,98.8631853 206.491575,97.7751853 206.440575,97.0271853 C206.355575,95.8201853 205.454575,94.8511853 204.978575,94.3241853 C204.298575,93.6271853 203.635575,93.3381853 202.683575,93.3381853 C202.479575,93.3381853 202.241575,93.3551853 202.003575,93.3891853 C201.102575,93.6781853 200.354575,94.4091853 199.827575,95.4801853 C198.926575,97.3501853 198.824575,99.9171853 199.572575,102.025185 C199.725575,102.450185 200.099575,103.028185 200.507575,103.487185 Z M210.622575,104.592185 C211.251575,105.068185 212.067575,105.340185 212.900575,105.340185 C213.937575,105.340185 214.804575,104.932185 215.246575,104.252185 C216.011575,102.977185 216.249575,100.869185 216.300575,99.3051853 C216.368575,97.5201853 216.249575,95.4631853 215.960575,93.8311853 L215.960575,93.8141853 C215.943575,93.7461853 215.943575,93.6611853 215.926575,93.5761853 C215.909575,93.3721853 215.892575,93.1851853 215.807575,93.0151853 C215.671575,92.7771853 215.450575,92.6751853 215.127575,92.6921853 L215.025575,92.7091853 L214.991575,92.7941853 C214.770575,93.3211853 214.872575,93.9161853 214.991575,94.4941853 C215.025575,94.6811853 215.059575,94.8851853 215.076575,95.0891853 C215.229575,96.7381853 215.280575,98.2171853 215.212575,99.3221853 C215.178575,100.087185 215.059575,101.243185 214.821575,102.246185 C214.549575,103.402185 214.175575,104.116185 213.767575,104.303185 C213.529575,104.422185 213.257575,104.473185 212.951575,104.473185 C212.237575,104.473185 211.523575,104.167185 211.200575,103.878185 C210.860575,103.572185 210.571575,102.994185 210.435575,102.603185 L210.435575,102.586185 C210.061575,101.566185 209.908575,100.206185 209.789575,98.4721853 C209.755575,97.9791853 209.704575,97.4691853 209.636575,96.9251853 C209.534575,95.9051853 209.432575,94.8511853 209.483575,94.0181853 C209.500575,93.8651853 209.534575,93.7291853 209.551575,93.5761853 C209.602575,93.2531853 209.670575,92.9301853 209.483575,92.7261853 C209.381575,92.6071853 209.194575,92.5391853 208.956575,92.5391853 L208.769575,92.5391853 L208.718575,92.6241853 C208.565575,92.8451853 208.514575,93.2531853 208.497575,93.5421853 C208.378575,95.0381853 208.514575,96.5341853 208.650575,98.1151853 C208.667575,98.2851853 208.684575,98.4381853 208.684575,98.5911853 C208.871575,100.954185 209.194575,103.555185 210.622575,104.592185 Z M219.292575,93.3551853 L219.275575,93.2531853 L219.156575,93.2191853 C219.088575,93.2021853 219.037575,93.2021853 218.969575,93.2021853 C218.799575,93.2021853 218.680575,93.2701853 218.578575,93.3211853 C218.561575,93.3211853 218.544575,93.3381853 218.544575,93.3381853 L218.476575,93.3721853 L218.459575,93.4231853 C218.306575,93.7971853 218.323575,94.3411853 218.340575,94.8511853 C218.340575,95.1401853 218.357575,95.4291853 218.340575,95.6671853 L218.340575,95.7861853 L218.425575,95.8371853 C218.561575,95.9051853 218.697575,95.9391853 218.816575,95.9391853 C218.969575,95.9391853 219.105575,95.8881853 219.207575,95.7691853 C219.547575,95.3441853 219.445575,94.2221853 219.292575,93.3551853 Z M228.047575,104.694185 C227.639575,104.269185 227.027575,104.201185 226.483575,104.201185 C226.279575,104.201185 226.041575,104.218185 225.820575,104.218185 C225.582575,104.235185 225.327575,104.252185 225.089575,104.252185 C224.953575,104.252185 224.817575,104.252185 224.698575,104.235185 C224.324575,104.201185 223.950575,104.167185 223.593575,104.116185 C223.355575,104.099185 223.117575,104.065185 222.896575,104.048185 C222.743575,101.889185 222.760575,99.8831853 222.964575,97.3501853 C222.998575,96.9251853 222.964575,96.4831853 222.913575,96.0241853 C222.896575,95.6841853 222.862575,95.3271853 222.862575,94.9701853 C222.862575,94.8001853 222.862575,94.6301853 222.879575,94.4601853 C222.896575,93.8311853 222.913575,93.1851853 222.641575,92.6411853 L222.590575,92.5561853 L222.488575,92.5561853 C222.471575,92.5561853 222.420575,92.5391853 222.386575,92.5391853 C222.301575,92.5221853 222.182575,92.4881853 222.097575,92.4881853 C221.961575,92.4881853 221.876575,92.5221853 221.808575,92.6071853 C221.774575,92.6411853 221.740575,92.7261853 221.757575,92.8451853 C221.876575,94.5621853 221.825575,96.4321853 221.791575,98.2341853 C221.740575,100.376185 221.689575,102.586185 221.910575,104.626185 L221.927575,104.745185 L222.046575,104.779185 C223.270575,105.034185 224.511575,105.085185 225.701575,105.136185 L225.973575,105.136185 C226.126575,105.136185 226.313575,105.153185 226.500575,105.170185 C226.704575,105.204185 226.908575,105.221185 227.112575,105.221185 C227.503575,105.221185 227.809575,105.136185 228.030575,104.949185 L228.166575,104.830185 L228.047575,104.694185 Z M235.476575,104.694185 C235.068575,104.269185 234.456575,104.201185 233.912575,104.201185 C233.708575,104.201185 233.470575,104.218185 233.249575,104.218185 C233.011575,104.235185 232.756575,104.252185 232.518575,104.252185 C232.382575,104.252185 232.246575,104.252185 232.127575,104.235185 C231.753575,104.201185 231.379575,104.167185 231.022575,104.116185 C230.784575,104.099185 230.546575,104.065185 230.325575,104.048185 C230.172575,101.889185 230.189575,99.8831853 230.393575,97.3501853 C230.427575,96.9251853 230.393575,96.4831853 230.342575,96.0241853 C230.325575,95.6841853 230.291575,95.3271853 230.291575,94.9701853 C230.291575,94.8001853 230.291575,94.6301853 230.308575,94.4601853 C230.325575,93.8311853 230.342575,93.1851853 230.070575,92.6411853 L230.019575,92.5561853 L229.917575,92.5561853 C229.900575,92.5561853 229.849575,92.5391853 229.815575,92.5391853 C229.730575,92.5221853 229.611575,92.4881853 229.526575,92.4881853 C229.390575,92.4881853 229.305575,92.5221853 229.237575,92.6071853 C229.203575,92.6411853 229.169575,92.7261853 229.186575,92.8451853 C229.305575,94.5621853 229.254575,96.4321853 229.220575,98.2341853 C229.169575,100.376185 229.118575,102.586185 229.339575,104.626185 L229.356575,104.745185 L229.475575,104.779185 C230.699575,105.034185 231.940575,105.085185 233.130575,105.136185 L233.402575,105.136185 C233.555575,105.136185 233.742575,105.153185 233.929575,105.170185 C234.133575,105.204185 234.337575,105.221185 234.541575,105.221185 C234.932575,105.221185 235.238575,105.136185 235.459575,104.949185 L235.595575,104.830185 L235.476575,104.694185 Z M248.107575,104.694185 C247.699575,104.269185 247.087575,104.201185 246.543575,104.201185 C246.339575,104.201185 246.101575,104.218185 245.880575,104.218185 C245.642575,104.235185 245.387575,104.252185 245.149575,104.252185 C245.013575,104.252185 244.877575,104.252185 244.758575,104.235185 C244.384575,104.201185 244.010575,104.167185 243.653575,104.116185 C243.415575,104.099185 243.177575,104.065185 242.956575,104.048185 C242.803575,101.889185 242.820575,99.8831853 243.024575,97.3501853 C243.058575,96.9251853 243.024575,96.4831853 242.973575,96.0241853 C242.956575,95.6841853 242.922575,95.3271853 242.922575,94.9701853 C242.922575,94.8001853 242.922575,94.6301853 242.939575,94.4601853 C242.956575,93.8311853 242.973575,93.1851853 242.701575,92.6411853 L242.650575,92.5561853 L242.548575,92.5561853 C242.531575,92.5561853 242.480575,92.5391853 242.446575,92.5391853 C242.361575,92.5221853 242.242575,92.4881853 242.157575,92.4881853 C242.021575,92.4881853 241.936575,92.5221853 241.868575,92.6071853 C241.834575,92.6411853 241.800575,92.7261853 241.817575,92.8451853 C241.936575,94.5621853 241.885575,96.4321853 241.851575,98.2341853 C241.800575,100.376185 241.749575,102.586185 241.970575,104.626185 L241.987575,104.745185 L242.106575,104.779185 C243.330575,105.034185 244.571575,105.085185 245.761575,105.136185 L246.033575,105.136185 C246.186575,105.136185 246.373575,105.153185 246.560575,105.170185 C246.764575,105.204185 246.968575,105.221185 247.172575,105.221185 C247.563575,105.221185 247.869575,105.136185 248.090575,104.949185 L248.226575,104.830185 L248.107575,104.694185 Z M249.620575,98.4891853 C249.654575,99.2541853 249.654575,100.036185 249.671575,100.801185 C249.688575,101.940185 249.688575,103.130185 249.739575,104.269185 C249.739575,104.320185 249.739575,104.388185 249.722575,104.456185 C249.688575,104.660185 249.654575,104.966185 249.909575,105.136185 C249.960575,105.204185 250.045575,105.255185 250.198575,105.255185 C250.351575,105.255185 250.504575,105.204185 250.589575,105.170185 L250.674575,105.136185 L250.691575,105.068185 C250.895575,104.405185 250.827575,103.674185 250.759575,102.892185 C250.759575,102.756185 250.742575,102.620185 250.742575,102.467185 C250.640575,99.9511853 250.725575,97.5371853 250.810575,95.1911853 C250.844575,94.4601853 250.861575,93.7121853 250.895575,92.9641853 L250.895575,92.9131853 L250.861575,92.8621853 C250.742575,92.7091853 250.487575,92.6241853 250.283575,92.6241853 C250.062575,92.6241853 249.892575,92.7091853 249.807575,92.8621853 L249.773575,92.9301853 C249.586575,94.3241853 249.603575,95.8201853 249.620575,97.2651853 L249.620575,98.4891853 Z M253.921575,99.8661853 C254.227575,99.6281853 254.516575,99.3731853 254.771575,99.1351853 C255.145575,98.7781853 255.502575,98.4551853 255.927575,98.1831853 C256.573575,100.036185 257.491575,102.025185 258.528575,103.810185 C258.562575,103.878185 258.596575,103.946185 258.630575,104.031185 C258.868575,104.490185 259.191575,105.187185 259.820575,105.187185 C259.939575,105.187185 260.058575,105.170185 260.177575,105.119185 L260.313575,105.051185 L260.279575,104.915185 C260.075575,104.269185 259.752575,103.708185 259.429575,103.181185 C259.123575,102.654185 258.800575,102.127185 258.511575,101.600185 C257.984575,100.631185 257.576575,99.5261853 257.185575,98.4721853 C257.049575,98.1151853 256.913575,97.7581853 256.777575,97.4351853 C257.168575,97.1291853 257.525575,96.7721853 257.882575,96.4321853 C258.222575,96.0921853 258.545575,95.7861853 258.885575,95.5141853 C258.936575,95.4631853 258.987575,95.4291853 259.055575,95.3951853 C259.293575,95.2251853 259.582575,95.0041853 259.565575,94.6471853 L259.565575,94.5791853 L259.497575,94.5281853 C259.344575,94.3921853 259.174575,94.3071853 258.987575,94.3071853 C258.579575,94.3071853 258.273575,94.6641853 258.018575,94.9531853 C257.933575,95.0551853 257.865575,95.1401853 257.797575,95.1911853 C256.403575,96.4491853 255.145575,97.5711853 253.870575,98.5231853 C253.853575,97.9621853 253.870575,97.3501853 253.870575,96.7551853 C253.904575,95.3611853 253.921575,93.8991853 253.615575,92.8111853 L253.581575,92.7261853 L253.513575,92.7091853 C253.496575,92.6921853 253.496575,92.6921853 253.479575,92.6921853 C253.377575,92.6581853 253.190575,92.5731853 253.020575,92.5731853 C252.799575,92.5731853 252.663575,92.7091853 252.663575,92.9131853 L252.663575,92.9301853 C252.799575,94.6301853 252.833575,96.2281853 252.765575,97.5711853 C252.714575,98.9311853 252.833575,100.308185 252.952575,101.617185 C253.020575,102.416185 253.088575,103.164185 253.122575,103.895185 L253.122575,104.150185 C253.122575,104.456185 253.105575,104.796185 253.309575,105.068185 L253.343575,105.102185 L253.411575,105.119185 C253.513575,105.153185 253.581575,105.153185 253.649575,105.153185 C253.700575,105.153185 253.751575,105.153185 253.802575,105.136185 L253.972575,105.136185 L254.108575,105.119185 L254.125575,104.983185 C254.278575,103.895185 254.159575,102.688185 254.057575,101.532185 C254.006575,100.954185 253.955575,100.393185 253.921575,99.8661853 Z M266.195575,92.2841853 L266.178575,92.2841853 C265.753575,92.3011853 265.294575,92.3181853 264.801575,92.3181853 C263.509575,92.3351853 262.166575,92.3521853 261.316575,92.7091853 L261.197575,92.7431853 L261.197575,92.8791853 C261.299575,94.7831853 261.214575,96.9081853 261.129575,99.1351853 C261.061575,101.158185 260.976575,103.249185 261.044575,105.170185 L261.061575,105.289185 L261.163575,105.323185 C261.605575,105.459185 262.132575,105.510185 262.778575,105.510185 C263.356575,105.510185 263.951575,105.459185 264.529575,105.425185 C265.090575,105.374185 265.600575,105.340185 266.093575,105.340185 C266.246575,105.340185 266.416575,105.357185 266.586575,105.391185 C266.773575,105.425185 266.977575,105.459185 267.164575,105.459185 C267.555575,105.459185 267.810575,105.306185 267.929575,104.966185 L267.997575,104.847185 L267.878575,104.762185 C267.521575,104.541185 266.994575,104.422185 266.195575,104.422185 C265.685575,104.422185 265.141575,104.473185 264.614575,104.524185 C264.070575,104.558185 263.509575,104.609185 262.965575,104.609185 C262.625575,104.609185 262.336575,104.592185 262.047575,104.558185 C262.064575,103.232185 262.149575,102.127185 262.251575,100.852185 C262.285575,100.427185 262.319575,99.9681853 262.353575,99.4921853 C262.676575,99.5091853 262.999575,99.5091853 263.322575,99.5091853 C264.240575,99.5091853 265.141575,99.4751853 265.957575,99.3901853 C266.076575,99.3731853 266.195575,99.3731853 266.314575,99.3731853 C266.739575,99.3391853 267.198575,99.3221853 267.487575,99.0331853 L267.589575,98.9311853 L267.521575,98.8291853 C267.334575,98.5401853 267.062575,98.3871853 266.654575,98.3871853 C266.433575,98.3871853 266.195575,98.4381853 265.957575,98.4721853 C265.787575,98.4891853 265.617575,98.5231853 265.464575,98.5401853 C265.090575,98.5571853 264.682575,98.5741853 264.240575,98.5741853 C263.662575,98.5741853 263.016575,98.5571853 262.319575,98.4891853 C262.370575,96.7211853 262.370575,95.0381853 262.370575,93.5081853 C263.237575,93.3211853 264.427575,93.2871853 265.498575,93.2701853 C265.804575,93.2531853 266.076575,93.2531853 266.348575,93.2361853 L266.552575,93.2361853 C266.637575,93.2361853 266.722575,93.2531853 266.807575,93.2531853 C267.164575,93.2531853 267.538575,93.2021853 267.759575,92.9131853 L267.793575,92.8791853 L267.793575,92.8281853 C267.810575,92.6581853 267.776575,92.5391853 267.674575,92.4371853 C267.504575,92.2501853 267.215575,92.2331853 267.028575,92.2331853 C266.858575,92.2331853 266.688575,92.2501853 266.535575,92.2671853 C266.399575,92.2671853 266.280575,92.2841853 266.195575,92.2841853 Z M274.066575,98.4891853 C274.100575,99.2541853 274.100575,100.036185 274.117575,100.801185 C274.134575,101.940185 274.134575,103.130185 274.185575,104.269185 C274.185575,104.320185 274.185575,104.388185 274.168575,104.456185 C274.134575,104.660185 274.100575,104.966185 274.355575,105.136185 C274.406575,105.204185 274.491575,105.255185 274.644575,105.255185 C274.797575,105.255185 274.950575,105.204185 275.035575,105.170185 L275.120575,105.136185 L275.137575,105.068185 C275.341575,104.405185 275.273575,103.674185 275.205575,102.892185 C275.205575,102.756185 275.188575,102.620185 275.188575,102.467185 C275.086575,99.9511853 275.171575,97.5371853 275.256575,95.1911853 C275.290575,94.4601853 275.307575,93.7121853 275.341575,92.9641853 L275.341575,92.9131853 L275.307575,92.8621853 C275.188575,92.7091853 274.933575,92.6241853 274.729575,92.6241853 C274.508575,92.6241853 274.338575,92.7091853 274.253575,92.8621853 L274.219575,92.9301853 C274.032575,94.3241853 274.049575,95.8201853 274.066575,97.2651853 L274.066575,98.4891853 Z M279.880575,93.6441853 C280.016575,97.0781853 280.067575,100.206185 279.931575,104.116185 C279.931575,104.167185 279.931575,104.218185 279.914575,104.286185 C279.914575,104.541185 279.897575,104.847185 280.084575,105.034185 C280.169575,105.136185 280.288575,105.170185 280.424575,105.170185 C280.509575,105.170185 280.594575,105.170185 280.696575,105.136185 L280.764575,105.119185 L280.798575,105.068185 C280.968575,104.762185 280.951575,104.439185 280.917575,104.116185 L280.917575,103.759185 C280.934575,103.164185 280.934575,102.535185 280.951575,101.889185 C281.002575,99.1351853 281.070575,96.0241853 280.934575,93.6951853 C281.070575,93.6951853 281.223575,93.7121853 281.376575,93.7121853 C281.563575,93.7121853 281.767575,93.6951853 281.954575,93.6951853 C282.141575,93.6951853 282.345575,93.6781853 282.566575,93.6781853 C282.634575,93.6781853 282.736575,93.6951853 282.821575,93.6951853 C282.923575,93.6951853 283.025575,93.7121853 283.127575,93.7121853 C283.348575,93.7121853 283.637575,93.6781853 283.790575,93.4061853 L283.841575,93.3381853 L283.807575,93.2531853 C283.569575,92.7261853 283.008575,92.6581853 282.532575,92.6581853 C282.362575,92.6581853 282.192575,92.6751853 282.022575,92.6751853 C281.852575,92.6921853 281.682575,92.6921853 281.512575,92.6921853 L281.291575,92.6921853 C280.730575,92.6751853 280.220575,92.6581853 279.727575,92.6241853 C279.098575,92.5901853 278.503575,92.5561853 277.908575,92.5561853 C277.364575,92.5561853 276.854575,92.5901853 276.361575,92.6411853 L276.157575,92.6581853 L276.208575,92.8451853 C276.361575,93.5421853 277.109575,93.6271853 277.721575,93.6271853 C277.959575,93.6271853 278.214575,93.6101853 278.469575,93.5931853 C278.707575,93.5761853 278.962575,93.5761853 279.183575,93.5761853 C279.489575,93.5761853 279.710575,93.5931853 279.880575,93.6441853 Z M284.317575,105.272185 L284.351575,105.357185 C284.521575,105.714185 284.725575,105.901185 284.963575,105.901185 C285.252575,105.901185 285.541575,105.612185 285.830575,105.034185 C286.051575,104.609185 286.221575,104.116185 286.306575,103.844185 C286.663575,102.722185 286.833575,101.226185 286.748575,99.6451853 C286.680575,98.1831853 286.408575,96.7551853 286.000575,95.7521853 C285.949575,95.6501853 285.915575,95.5481853 285.864575,95.4291853 C285.609575,94.7661853 285.303575,93.9331853 284.691575,93.9331853 C284.572575,93.9331853 284.453575,93.9671853 284.317575,94.0351853 L284.232575,94.0691853 L284.232575,94.1881853 C284.232575,94.6641853 284.436575,95.0891853 284.674575,95.5311853 C284.793575,95.7691853 284.912575,96.0241853 285.014575,96.2791853 C286.000575,99.2881853 285.728575,103.045185 284.368575,105.187185 L284.317575,105.272185 Z" id="Check-out-The-PIngy" fill="#333333" transform="translate(202.631347, 83.482183) rotate(-13.000000) translate(-202.631347, -83.482183) "></path>
            <use id="Rectangle" stroke="#333333" mask="url(#mask-2)" stroke-width="2" fill="#D8D8D8" transform="translate(286.789088, 64.723344) rotate(-13.000000) translate(-286.789088, -64.723344) " xlink:href="#path-1"></use>
        </g>
    </g>
</svg>