<svg width="532" height="255" viewBox="0 0 532 255" xmlns="http://www.w3.org/2000/svg" xmlns:xlink="http://www.w3.org/1999/xlink"><title>logo</title><defs><filter x="-50%" y="-50%" width="200%" height="200%" filterUnits="objectBoundingBox" id="v"><feOffset dy="3" in="SourceAlpha" result="shadowOffsetOuter1"/><feGaussianBlur stdDeviation="4.5" in="shadowOffsetOuter1" result="shadowBlurOuter1"/><feColorMatrix values="0 0 0 0 0 0 0 0 0 0 0 0 0 0 0 0 0 0 0.6 0" in="shadowBlurOuter1" result="shadowMatrixOuter1"/><feMerge><feMergeNode in="shadowMatrixOuter1"/><feMergeNode in="SourceGraphic"/></feMerge></filter><linearGradient x1="50%" y1="0%" x2="50%" y2="100%" id="x"><stop stop-color="#F3F3F3" offset="0%"/><stop stop-color="#E1E1E1" offset="2.5%"/><stop stop-color="#FAFAFA" offset="11.8%"/><stop stop-color="#CCC" offset="73.1%"/></linearGradient><rect id="a" width="512" height="59" rx="5"/><mask id="w" x="0" y="0" width="512" height="59" fill="#fff"><use xlink:href="#a"/></mask><path id="y" d="M0 59h512v177H0z"/><filter x="-50%" y="-50%" width="200%" height="200%" filterUnits="objectBoundingBox" id="z"><feMorphology radius="2" in="SourceAlpha" result="shadowSpreadInner1"/><feGaussianBlur stdDeviation="1" in="shadowSpreadInner1" result="shadowBlurInner1"/><feOffset dy="3" in="shadowBlurInner1" result="shadowOffsetInner1"/><feComposite in="shadowOffsetInner1" in2="SourceAlpha" operator="arithmetic" k2="-1" k3="1" result="shadowInnerInner1"/><feColorMatrix values="0 0 0 0 0 0 0 0 0 0 0 0 0 0 0 0 0 0 0.06 0" in="shadowInnerInner1" result="shadowMatrixInner1"/><feMorphology radius="2" in="SourceAlpha" result="shadowSpreadInner2"/><feGaussianBlur stdDeviation="1" in="shadowSpreadInner2" result="shadowBlurInner2"/><feOffset dy="-3" in="shadowBlurInner2" result="shadowOffsetInner2"/><feComposite in="shadowOffsetInner2" in2="SourceAlpha" operator="arithmetic" k2="-1" k3="1" result="shadowInnerInner2"/><feColorMatrix values="0 0 0 0 0 0 0 0 0 0 0 0 0 0 0 0 0 0 0.06 0" in="shadowInnerInner2" result="shadowMatrixInner2"/><feMerge><feMergeNode in="shadowMatrixInner1"/><feMergeNode in="shadowMatrixInner2"/></feMerge></filter><path id="b" d="M0 0h106v27.2H0z"/><filter x="-50%" y="-50%" width="200%" height="200%" filterUnits="objectBoundingBox" id="A"><feMorphology radius="3" in="SourceAlpha" result="shadowSpreadInner1"/><feOffset in="shadowSpreadInner1" result="shadowOffsetInner1"/><feComposite in="shadowOffsetInner1" in2="SourceAlpha" operator="arithmetic" k2="-1" k3="1" result="shadowInnerInner1"/><feColorMatrix values="0 0 0 0 1 0 0 0 0 1 0 0 0 0 1 0 0 0 0.5 0" in="shadowInnerInner1"/></filter><mask id="B" x="0" y="0" width="106" height="27.2" fill="#fff"><use xlink:href="#b"/></mask><path id="c" d="M105 0h106v27.2H105z"/><filter x="-50%" y="-50%" width="200%" height="200%" filterUnits="objectBoundingBox" id="C"><feMorphology radius="3" in="SourceAlpha" result="shadowSpreadInner1"/><feOffset in="shadowSpreadInner1" result="shadowOffsetInner1"/><feComposite in="shadowOffsetInner1" in2="SourceAlpha" operator="arithmetic" k2="-1" k3="1" result="shadowInnerInner1"/><feColorMatrix values="0 0 0 0 1 0 0 0 0 1 0 0 0 0 1 0 0 0 0.5 0" in="shadowInnerInner1"/></filter><mask id="D" x="0" y="0" width="106" height="27.2" fill="#fff"><use xlink:href="#c"/></mask><path id="d" d="M210 0h106v27.2H210z"/><filter x="-50%" y="-50%" width="200%" height="200%" filterUnits="objectBoundingBox" id="E"><feMorphology radius="3" in="SourceAlpha" result="shadowSpreadInner1"/><feOffset in="shadowSpreadInner1" result="shadowOffsetInner1"/><feComposite in="shadowOffsetInner1" in2="SourceAlpha" operator="arithmetic" k2="-1" k3="1" result="shadowInnerInner1"/><feColorMatrix values="0 0 0 0 1 0 0 0 0 1 0 0 0 0 1 0 0 0 0.5 0" in="shadowInnerInner1"/></filter><mask id="F" x="0" y="0" width="106" height="27.2" fill="#fff"><use xlink:href="#d"/></mask><path id="e" d="M315 0h197v27.2H315z"/><filter x="-50%" y="-50%" width="200%" height="200%" filterUnits="objectBoundingBox" id="G"><feMorphology radius="3" in="SourceAlpha" result="shadowSpreadInner1"/><feOffset in="shadowSpreadInner1" result="shadowOffsetInner1"/><feComposite in="shadowOffsetInner1" in2="SourceAlpha" operator="arithmetic" k2="-1" k3="1" result="shadowInnerInner1"/><feColorMatrix values="0 0 0 0 1 0 0 0 0 1 0 0 0 0 1 0 0 0 0.5 0" in="shadowInnerInner1"/></filter><mask id="H" x="0" y="0" width="197" height="27.2" fill="#fff"><use xlink:href="#e"/></mask><linearGradient x1="50%" y1="0%" x2="50%" y2="100%" id="K"><stop stop-color="#FFF700" offset="0%"/><stop stop-color="#FB0" offset="100%"/></linearGradient><radialGradient fx="50%" fy="50%" r="46.1%" id="I"><stop stop-color="#FFF" stop-opacity=".4" offset="0%"/><stop stop-color="#FFF" stop-opacity=".1" offset="100%"/></radialGradient><path d="M56.2 50.2L31.7 1c-.3-.7-.8-1-1.3-1-.8 0-1.5.6-1.5 1.5v.3L33 35v.8c0 2.4-1.8 4.3-4.2 4.3H6c-3.4.4-6 3.2-6 6.6 0 1 .2 2 .6 3L25.2 99l.2.4c.3.4.7.7 1.2.7.8 0 1.5-.6 1.5-1.4l-4-33.4c0-.3 0-.5-.2-.7 0-2.6 2-4.6 4.4-4.6H51c3.4-.4 6-3.2 6-6.6 0-1-.2-1.7-.5-2.5l-.3-.8z" id="f"/><mask id="J" x="0" y="0" width="57" height="100.1" fill="#fff"><use xlink:href="#f"/></mask><path d="M9.6 60.2L.4 61V49.8c0-18.2 0-27-.4-33.2l8.5-.5.4 3.3c2-2.2 5-4 8.4-4 6.8 0 11.8 6.2 11.8 15.7 0 12.4-8.6 19.4-19.6 19.4v9.8zm3-17.8c4.3 0 7.4-2.8 7.4-9 0-7-2.7-10.5-6.4-10.5-1.4 0-3 .4-4.2 1.4l.2 17.4c1 .4 2 .6 3 .6z" id="g"/><mask id="L" x="0" y="0" width="29.2" height="45.6" fill="#fff"><use xlink:href="#g"/></mask><path id="h" d="M31 47.4l1-7H21v-26H1.6L1 20.8l10.8.4v19H1.2v7z"/><mask id="M" x="0" y="0" width="31" height="33.1" fill="#fff"><use xlink:href="#h"/></mask><path id="i" d="M21 9.7l.7-9.5H12l-.6 9.5z"/><mask id="N" x="0" y="0" width="10.3" height="9.5" fill="#fff"><use xlink:href="#i"/></mask><path d="M15.4 8.3c2.7 0 4.4 1.5 4.4 6.8v19.4H29V11.8c0-8-3.4-11.4-9-11.4-4.5 0-7.7 2-10.2 4.4L9.4 1l-8.7.6c.5 7.4.6 17.5.6 32.8h9.3c0-9.8 0-18.2-.3-24.5 1.5-1 3.2-1.7 5-1.7z" id="j"/><mask id="O" x="0" y="0" width="28.4" height="34.1" fill="#fff"><use xlink:href="#j"/></mask><path d="M5.8 46l-1-8.2c13.8-1.2 15.4-1.7 15.6-9-2 1.3-4.5 2.3-7.6 2.3-6.7 0-12-5-12-13.4C1 7.3 9 .6 19.3.6c3.4 0 7 .4 10.3 1.5l.2 22.2c0 12.7-4.5 21-24 22zm10.7-22c1.3 0 2.6-.2 4-.7V9c-1.7-.5-3.2-.8-4.8-.8-3.6 0-5.7 2.4-5.7 7.3 0 5.8 3 8.5 6.5 8.5z" id="k"/><mask id="P" x="0" y="0" width="28.8" height="45.6" fill="#fff"><use xlink:href="#k"/></mask><path d="M3.7 46c12.7-.8 16.5-4 21.6-19 3-8.8 6-18.8 8-25.7h-9l-6 22.4h-.6C15.3 17.5 12.2 7 10 1l-9.5.6c1.8 5 9.3 25 11.5 30.5l2 1c-1.6 3.4-4 3.8-11 4.7l.7 8.3z" id="l"/><mask id="Q" x="0" y="0" width="32.8" height="45.1" fill="#fff"><use xlink:href="#l"/></mask><path id="m" d="M30 0L.7 59.5l8 3.8L38 3.8z"/><mask id="R" x="0" y="0" width="37.5" height="63.3" fill="#fff"><use xlink:href="#m"/></mask><path d="M.2 18.5c0 10.3 5.4 18.3 26.6 16.2l1-7.7C14 28 9.4 25.5 9.4 17.2c0-5.7 1.6-8.6 17.7-7.6L26.6.8C6.3.6.2 9 .2 18.5z" id="n"/><mask id="S" x="0" y="0" width="27.4" height="34.2" fill="#fff"><use xlink:href="#n"/></mask><path id="o" d="M28 46.4l.8-7H19V.5H1L0 7.3l9.7.5v31.8H0v7z"/><mask id="T" x="0" y="0" width="28.8" height="45.9" fill="#fff"><use xlink:href="#o"/></mask><path id="p" d="M30.2 47.4l.8-7H20.3v-26H.7L0 20.8l11 .4v19H.3v7z"/><mask id="U" x="0" y="0" width="31" height="33.1" fill="#fff"><use xlink:href="#p"/></mask><path id="q" d="M20.3 9.7l.5-9.5H11l-.5 9.5z"/><mask id="V" x="0" y="0" width="10.3" height="9.5" fill="#fff"><use xlink:href="#q"/></mask><path id="r" d="M423 8h37v72h-37z"/><mask id="W" x="0" y="0" width="37" height="72" fill="#fff"><use xlink:href="#r"/></mask><ellipse id="s" cx="25" cy="5" rx="5" ry="5"/><mask id="X" x="-2" y="-2" width="14" height="14"><path fill="#fff" d="M18-2h14v14H18z"/><use xlink:href="#s"/></mask><ellipse id="t" cx="5" cy="5" rx="5" ry="5"/><mask id="Y" x="-2" y="-2" width="14" height="14"><path fill="#fff" d="M-2-2h14v14H-2z"/><use xlink:href="#t"/></mask><ellipse id="u" cx="45" cy="5" rx="5" ry="5"/><mask id="Z" x="-2" y="-2" width="14" height="14"><path fill="#fff" d="M38-2h14v14H38z"/><use xlink:href="#u"/></mask></defs><g fill="none" fill-rule="evenodd"><g filter="url(#v)" transform="translate(10 6)"><use stroke-opacity=".2" stroke="#000" mask="url(#w)" stroke-width="2" fill="url(#x)" xlink:href="#a"/><use fill-opacity=".5" fill="#000" xlink:href="#y"/><use fill="#000" filter="url(#z)" xlink:href="#y"/><use stroke="#000" xlink:href="#y"/><g><g transform="translate(0 32)"><use fill="#000" filter="url(#A)" xlink:href="#b"/><use stroke-opacity=".2" stroke="#000" mask="url(#B)" stroke-width="2" xlink:href="#b"/></g><g opacity=".7" transform="translate(0 32)"><use fill-opacity=".3" fill="#000" xlink:href="#c"/><use fill="#000" filter="url(#C)" xlink:href="#c"/><use stroke-opacity=".2" stroke="#000" mask="url(#D)" stroke-width="2" xlink:href="#c"/></g><g opacity=".7" transform="translate(0 32)"><use fill-opacity=".3" fill="#000" xlink:href="#d"/><use fill="#000" filter="url(#E)" xlink:href="#d"/><use stroke-opacity=".2" stroke="#000" mask="url(#F)" stroke-width="2" xlink:href="#d"/></g><g opacity=".7" transform="translate(0 32)"><use fill-opacity=".3" fill="#000" xlink:href="#e"/><use fill="#000" filter="url(#G)" xlink:href="#e"/><use stroke-opacity=".2" stroke="#000" mask="url(#H)" stroke-width="2" xlink:href="#e"/></g><g fill="#111"><path d="M34.2 44.2V43h-2.4v1.2h2.4zM30.6 49v-7.2h4.8v3.6h-3.6V49h-1.2zm6 0v-7.2h1.2V49h-1.2zm2.4 0v-7.2h1.2V43h1.2v1.2h-1.2V49H39zm3.6 0v-3.6h-1.2v-1.2h1.2v-2.4h1.2V49h-1.2zm3.6 0v-1.2h2.4V49h-2.4zm2.4-1.2v-2.4h-1.2v-1.2h2.4v3.6h-1.2zm-3.6 0V43h1.2v4.8H45zm1.2-4.8v-1.2h3.6V43h-3.6zm7.2 6v-3.6h1.2V49h-1.2zm-1.2-3.6v-1.2h1.2v1.2h-1.2zm2.4 0v-1.2h1.2v1.2h-1.2zM51 44.2v-2.4h1.2v2.4H51zm4.8 0v-2.4H57v2.4h-1.2zm2.4 1.2v-1.2h3.6v1.2h-3.6zm6 3.6v-1.2h2.4V49h-2.4zm2.4-1.2v-1.2h1.2v1.2h-1.2zm-3.6 0V43h1.2v4.8H63zm3.6-3.6V43h1.2v1.2h-1.2zM64.2 43v-1.2h2.4V43h-2.4zm4.8 6v-7.2h1.2v6h3.6V49H69zm6 0v-7.2h1.2V49H75z" fill-opacity=".5"/><path d="M148.2 49v-1.2h2.4V49h-2.4zm2.4-1.2v-2.4h-1.2v-1.2h2.4v3.6h-1.2zm-3.6 0V43h1.2v4.8H147zm1.2-4.8v-1.2h3.6V43h-3.6zm6 6v-1.2h2.4V49h-2.4zm-1.2-1.2v-6h1.2v6H153zm3.6 0v-6h1.2v6h-1.2zM159 49v-7.2h1.2v6h3.6V49H159zm9.6-4.8V43h-2.4v1.2h2.4zM165 49v-7.2h4.8v3.6h-3.6V49H165zM249.6 49v-1.2h2.4V49h-2.4zm2.4-1.2v-2.4h-1.2v-1.2h2.4v3.6H252zm-3.6 0V43h1.2v4.8h-1.2zm1.2-4.8v-1.2h3.6V43h-3.6zm8.4 6v-3.6h1.2V49H258zm0-4.8V43h1.2v1.2H258zm-3.6 4.8v-7.2h3.6V43h-2.4v1.2h2.4v1.2h-2.4V49h-1.2zm7.2 0v-1.2h2.4V49h-2.4zm-1.2-1.2v-6h1.2v6h-1.2zm3.6 0v-6h1.2v6H264zm2.4 1.2v-7.2h1.2V43h1.2v1.2h-1.2V49h-1.2zm3.6 0v-3.6h-1.2v-1.2h1.2v-2.4h1.2V49H270zm4.8 0v-6h-2.4v-1.2h6V43H276v6h-1.2z" fill-opacity=".3"/></g></g></g><g transform="translate(29 106)"><use stroke="url(#I)" mask="url(#J)" stroke-width="3.8" fill="url(#K)" transform="matrix(-1 0 0 1 57 0)" xlink:href="#f"/><g transform="translate(93 16)"><use stroke="url(#I)" mask="url(#L)" stroke-width="3.8" fill="#FFF" xlink:href="#g"/></g><g transform="translate(128 18)" stroke="url(#I)" stroke-width="3.8" fill="#FFF"><use mask="url(#M)" xlink:href="#h"/><use mask="url(#N)" xlink:href="#i"/></g><use mask="url(#O)" xlink:href="#j" transform="translate(164 31)" stroke="url(#I)" stroke-width="3.8" fill="#FFF"/><use mask="url(#P)" xlink:href="#k" transform="translate(199 31)" stroke="url(#I)" stroke-width="3.8" fill="#FFF"/><use mask="url(#Q)" xlink:href="#l" transform="translate(234 31)" stroke="url(#I)" stroke-width="3.8" fill="#FFF"/><use mask="url(#R)" xlink:href="#m" transform="translate(268 16)" stroke="url(#I)" stroke-width="3.8" fill="#FFF"/><use mask="url(#S)" xlink:href="#n" transform="translate(309 31)" stroke="url(#I)" stroke-width="3.8" fill="#FFF"/><use mask="url(#T)" xlink:href="#o" transform="translate(345 19)" stroke="url(#I)" stroke-width="3.8" fill="#FFF"/><g transform="translate(381 18)" stroke="url(#I)" stroke-width="3.8" fill="#FFF"><use mask="url(#U)" xlink:href="#p"/><use mask="url(#V)" xlink:href="#q"/></g><use stroke="url(#I)" mask="url(#W)" stroke-width="3.8" fill="#FFF" opacity=".5" xlink:href="#r"/></g><g transform="translate(20 18)"><use fill-opacity=".3" fill="#9E9E9E" xlink:href="#s"/><use stroke-opacity=".6" stroke="#878787" mask="url(#X)" stroke-width="4" xlink:href="#s"/></g><g transform="translate(20 18)"><use fill-opacity=".3" fill="#9E9E9E" xlink:href="#t"/><use stroke-opacity=".6" stroke="#878787" mask="url(#Y)" stroke-width="4" xlink:href="#t"/></g><g transform="translate(20 18)"><use fill-opacity=".3" fill="#9E9E9E" xlink:href="#u"/><use stroke-opacity=".6" stroke="#878787" mask="url(#Z)" stroke-width="4" xlink:href="#u"/></g></g></svg>